<?xml version="1.0" encoding="UTF-8" standalone="no"?>
<!DOCTYPE svg PUBLIC "-//W3C//DTD SVG 1.1//EN" "http://www.w3.org/Graphics/SVG/1.1/DTD/svg11.dtd">
<svg xmlns="http://www.w3.org/2000/svg" version="1.1" viewBox="0 0 180 220">
<path fill="#000000" d="
  M 17.76 173.06
  L 13.99 172.81
  A 2.13 2.12 2.0 0 1 12.01 170.69
  L 12.00 150.44
  A 1.56 1.54 -79.7 0 0 11.02 149.01
  C -1.23 144.34 -0.64 128.21 11.33 123.48
  A 1.04 1.04 0.0 0 0 11.95 122.82
  Q 12.84 119.94 10.81 118.95
  C -0.94 113.22 -1.07 98.20 11.56 93.49
  A 0.84 0.83 -11.1 0 0 12.10 92.70
  L 11.97 87.08
  A 1.60 1.59 -79.3 0 0 11.01 85.66
  C -0.87 80.62 -1.08 64.13 11.45 60.24
  A 0.71 0.70 -8.0 0 0 11.95 59.58
  L 12.02 53.70
  A 1.19 1.16 -71.4 0 0 11.57 52.77
  Q 10.35 51.83 9.04 51.14
  Q 2.35 47.64 2.15 40.02
  C 1.95 32.76 5.64 29.77 11.49 26.61
  A 0.87 0.84 -14.1 0 0 11.94 25.88
  C 12.04 22.03 10.27 12.09 16.30 12.22
  C 48.19 12.87 80.20 12.16 112.11 12.29
  A 0.99 0.99 0.0 0 1 112.81 12.58
  L 123.09 22.64
  A 1.38 1.36 -22.3 0 0 124.06 23.04
  Q 136.59 22.96 148.98 23.01
  C 151.34 23.02 151.96 25.68 151.97 27.79
  Q 152.08 67.99 151.92 108.20
  A 0.31 0.31 0.0 0 0 152.50 108.35
  C 155.42 103.15 159.44 94.35 164.08 91.53
  C 169.82 88.05 178.92 93.06 178.80 100.18
  Q 178.76 102.79 176.44 106.79
  Q 164.44 127.49 152.26 148.07
  A 1.81 1.79 -29.7 0 0 152.00 149.00
  Q 152.01 165.88 151.98 182.75
  C 151.98 185.18 150.48 186.29 148.08 186.26
  Q 139.29 186.12 130.67 186.44
  A 1.59 1.58 14.0 0 0 129.35 187.23
  C 126.68 191.84 123.43 199.29 119.27 202.48
  Q 112.24 207.89 105.36 213.46
  A 0.98 0.94 33.7 0 1 104.48 213.62
  C 101.69 212.72 101.04 210.59 101.48 207.75
  C 102.47 201.36 102.65 192.58 106.31 187.19
  A 0.60 0.60 0.0 0 0 105.81 186.25
  Q 63.59 186.25 21.25 186.25
  C 17.34 186.25 18.52 176.64 18.84 174.40
  A 1.18 1.18 0.0 0 0 17.76 173.06
  Z
  M 22.96 39.47
  C 25.26 37.44 29.08 40.10 28.22 43.00
  Q 26.12 50.03 19.30 52.35
  A 1.18 1.18 0.0 0 0 18.50 53.47
  L 18.51 78.20
  A 0.41 0.41 0.0 0 0 19.21 78.49
  Q 20.94 76.71 21.89 74.49
  C 23.35 71.08 26.98 71.52 28.29 74.74
  A 1.55 1.50 42.4 0 1 28.35 75.73
  Q 26.35 83.03 19.31 85.80
  A 1.26 1.26 0.0 0 0 18.50 86.98
  L 18.50 111.02
  A 0.58 0.58 0.0 0 0 19.01 111.60
  C 21.59 111.90 21.48 103.85 25.91 105.59
  C 33.62 108.61 22.25 118.12 18.93 119.46
  A 0.68 0.67 79.2 0 0 18.51 120.09
  L 18.48 141.24
  A 0.44 0.43 85.0 0 0 18.99 141.67
  C 21.96 141.16 21.04 135.65 24.68 135.44
  C 28.92 135.21 28.64 139.95 26.88 142.69
  Q 23.70 147.65 18.95 149.25
  A 0.67 0.66 80.9 0 0 18.50 149.88
  L 18.50 165.50
  A 0.64 0.64 0.0 0 0 19.11 166.14
  C 51.77 167.37 84.83 166.50 117.56 166.50
  A 1.20 1.20 0.0 0 0 118.58 165.93
  Q 124.96 155.48 131.04 144.56
  Q 132.03 142.78 132.03 140.71
  Q 131.97 92.14 132.01 43.66
  A 0.68 0.68 0.0 0 0 131.33 42.98
  Q 121.66 43.05 112.07 42.95
  C 109.96 42.93 108.75 41.50 108.76 39.35
  Q 108.82 29.76 108.54 20.13
  A 0.67 0.66 -87.5 0 0 107.96 19.49
  Q 107.60 19.45 107.27 19.59
  Q 106.92 19.75 106.53 19.75
  L 19.25 19.75
  A 0.75 0.75 0.0 0 0 18.50 20.50
  L 18.50 44.47
  A 0.59 0.58 69.2 0 0 19.47 44.91
  C 21.37 43.19 21.55 40.71 22.96 39.47
  Z
  M 126.10 36.32
  A 0.49 0.49 0.0 0 0 126.45 35.49
  L 116.18 25.22
  A 0.49 0.49 0.0 0 0 115.35 25.57
  L 115.33 35.85
  A 0.49 0.49 0.0 0 0 115.82 36.34
  L 126.10 36.32
  Z
  M 131.05 29.71
  A 0.45 0.45 0.0 0 0 130.75 30.49
  C 132.89 32.50 138.39 36.72 138.42 40.00
  Q 138.86 83.10 138.74 126.21
  C 138.74 127.25 138.12 128.96 138.78 130.34
  Q 139.00 130.81 139.30 130.38
  C 141.55 127.09 145.25 122.07 145.25 117.98
  Q 145.25 74.49 145.25 30.38
  A 0.71 0.71 0.0 0 0 144.54 29.67
  L 131.05 29.71
  Z
  M 11.53 34.34
  C 7.22 36.51 8.09 42.21 11.29 44.81
  A 0.42 0.42 0.0 0 0 11.98 44.49
  L 12.06 34.67
  A 0.37 0.37 0.0 0 0 11.53 34.34
  Z
  M 10.58 68.19
  Q 6.31 73.43 11.04 78.16
  A 0.54 0.54 0.0 0 0 11.96 77.79
  L 12.11 68.75
  A 0.86 0.86 0.0 0 0 10.58 68.19
  Z
  M 169.48 97.05
  Q 165.47 97.14 164.49 101.16
  A 0.70 0.70 0.0 0 0 164.80 101.92
  L 169.12 104.59
  A 0.62 0.61 -50.5 0 0 169.87 104.51
  Q 173.36 101.26 170.71 97.65
  A 1.49 1.48 70.9 0 0 169.48 97.05
  Z
  M 11.62 101.23
  C 6.91 101.88 8.71 108.92 10.98 111.50
  A 0.60 0.60 0.0 0 0 12.03 111.10
  L 12.06 101.62
  A 0.39 0.39 0.0 0 0 11.62 101.23
  Z
  M 166.0552 111.8044
  A 1.32 1.32 0.0 0 0 165.5157 110.0173
  L 161.6027 107.9192
  A 1.32 1.32 0.0 0 0 159.8156 108.4587
  L 159.4848 109.0756
  A 1.32 1.32 0.0 0 0 160.0243 110.8627
  L 163.9373 112.9608
  A 1.32 1.32 0.0 0 0 165.7244 112.4213
  L 166.0552 111.8044
  Z
  M 160.9819 120.1164
  A 0.88 0.88 0.0 0 0 160.6682 118.9121
  L 156.4247 116.4224
  A 0.88 0.88 0.0 0 0 155.2203 116.7361
  L 112.2581 189.9636
  A 0.88 0.88 0.0 0 0 112.5718 191.1679
  L 116.8153 193.6576
  A 0.88 0.88 0.0 0 0 118.0197 193.3439
  L 160.9819 120.1164
  Z
  M 11.62 131.23
  C 6.92 131.88 8.73 138.93 10.96 141.48
  A 0.61 0.61 0.0 0 0 12.03 141.09
  L 12.06 131.62
  A 0.39 0.39 0.0 0 0 11.62 131.23
  Z
  M 144.95 161.21
  A 0.26 0.26 0.0 0 0 144.51 161.23
  L 133.97 179.36
  A 0.26 0.26 0.0 0 0 134.19 179.75
  L 144.96 179.74
  A 0.26 0.26 0.0 0 0 145.22 179.48
  L 145.30 161.77
  A 0.26 0.26 0.0 0 0 145.25 161.61
  L 144.95 161.21
  Z
  M 25.28 173.83
  L 25.29 179.05
  A 0.70 0.70 0.0 0 0 25.99 179.75
  L 109.49 179.75
  A 1.38 1.36 -68.9 0 0 110.51 179.29
  Q 112.68 176.82 114.01 173.76
  A 0.54 0.54 0.0 0 0 113.51 173.00
  L 26.11 173.00
  A 0.83 0.83 0.0 0 0 25.28 173.83
  Z
  M 112.14 198.76
  C 109.95 196.46 108.87 199.13 109.35 200.93
  A 0.51 0.51 0.0 0 0 110.17 201.19
  L 112.09 199.59
  A 0.58 0.57 -41.6 0 0 112.14 198.76
  Z"
/>
<rect fill="#000000" x="38.71" y="49.75" width="79.94" height="6.50" rx="3.20"/>
<rect fill="#000000" x="38.71" y="69.75" width="79.94" height="6.50" rx="3.20"/>
<rect fill="#000000" x="38.72" y="89.75" width="79.76" height="6.50" rx="3.10"/>
<rect fill="#000000" x="38.70" y="109.75" width="79.98" height="6.50" rx="3.20"/>
<rect fill="#000000" x="38.71" y="129.75" width="33.26" height="6.50" rx="3.16"/>
</svg>
