<?xml version="1.0" encoding="UTF-8" standalone="no"?>
<!DOCTYPE svg PUBLIC "-//W3C//DTD SVG 1.1//EN" "http://www.w3.org/Graphics/SVG/1.1/DTD/svg11.dtd">
<svg xmlns="http://www.w3.org/2000/svg" version="1.1" viewBox="0 0 512 512">
<path fill="#ffffff" d="
  M 320.44 171.89
  C 390.48 180.61 441.22 241.95 436.55 312.82
  C 432.43 375.22 383.13 426.56 321.40 434.52
  Q 314.06 435.47 301.45 435.48
  Q 202.54 435.52 103.65 435.50
  Q 96.10 435.50 92.02 434.16
  C 74.01 428.29 69.06 404.21 84.04 391.58
  C 91.61 385.20 98.65 385.52 109.97 385.51
  Q 204.82 385.50 299.68 385.49
  Q 312.67 385.49 319.60 384.21
  C 387.31 371.70 410.19 285.81 358.34 241.01
  Q 334.96 220.81 302.44 220.77
  Q 233.87 220.68 165.47 220.79
  A 0.39 0.39 0.0 0 0 165.21 221.47
  Q 189.95 244.35 214.60 267.28
  C 222.64 274.75 227.92 281.26 226.76 291.76
  C 224.81 309.46 205.93 320.02 190.05 311.51
  Q 187.10 309.93 181.78 304.99
  Q 136.86 263.32 91.92 221.67
  C 89.46 219.39 86.75 217.22 84.11 215.01
  C 74.79 207.21 72.22 193.50 78.45 183.12
  Q 80.45 179.80 87.08 173.82
  Q 137.02 128.77 186.94 83.69
  Q 194.50 76.87 203.62 76.52
  C 226.93 75.62 238.52 104.47 221.42 119.92
  Q 193.51 145.14 165.51 170.38
  A 0.27 0.26 23.8 0 0 165.69 170.84
  Q 233.04 170.55 300.50 170.93
  Q 313.27 171.00 320.44 171.89
  Z"
/>
</svg>
