<?xml version="1.0" encoding="UTF-8" standalone="no"?>
<!DOCTYPE svg PUBLIC "-//W3C//DTD SVG 1.1//EN" "http://www.w3.org/Graphics/SVG/1.1/DTD/svg11.dtd">
<svg xmlns="http://www.w3.org/2000/svg" version="1.1" viewBox="0 0 256 256">
<path fill="#006b43" d="
  M 47.11 243.41
  C 38.21 247.49 31.01 243.61 31.01 233.55
  Q 30.99 135.90 31.00 38.25
  C 31.00 26.16 37.32 15.95 48.85 12.21
  Q 53.37 10.75 63.43 10.75
  Q 127.61 10.77 191.79 10.72
  C 206.50 10.71 218.83 13.60 223.49 28.88
  Q 225.01 33.87 225.01 45.79
  Q 224.99 140.51 225.00 235.25
  C 225.00 241.66 218.63 246.56 212.50 244.95
  Q 211.89 244.79 205.58 241.88
  Q 167.04 224.11 128.46 206.43
  A 1.10 1.07 -44.3 0 0 127.55 206.43
  Q 87.33 224.98 47.11 243.41
  Z
  M 123.85 186.40
  C 126.47 185.22 128.92 185.04 131.60 186.25
  Q 167.78 202.57 204.56 219.52
  A 0.31 0.31 0.0 0 0 205.00 219.24
  Q 205.01 128.61 204.99 37.78
  C 204.99 32.84 202.47 30.76 197.50 30.76
  Q 127.77 30.74 58.03 30.76
  C 53.09 30.76 51.01 33.28 51.01 38.26
  Q 50.99 128.84 51.00 219.07
  A 0.46 0.45 -12.5 0 0 51.65 219.48
  Q 87.73 202.79 123.85 186.40
  Z"
/>
</svg>
