<?xml version="1.0" encoding="UTF-8" standalone="no"?>
<!DOCTYPE svg PUBLIC "-//W3C//DTD SVG 1.1//EN" "http://www.w3.org/Graphics/SVG/1.1/DTD/svg11.dtd">
<svg xmlns="http://www.w3.org/2000/svg" version="1.1" viewBox="0.00 0.00 48.00 48.00">
<path fill="#202020" d="
  M 32.21 11.26
  L 32.47 11.98
  Q 32.69 12.58 32.11 12.32
  Q 30.55 11.62 29.07 12.32
  A 0.33 0.28 3.1 0 1 28.64 11.91
  Q 29.70 10.60 28.94 9.08
  A 0.49 0.32 86.6 0 1 29.34 8.38
  Q 30.57 9.50 32.08 8.67
  Q 32.80 8.27 32.57 9.06
  L 32.18 10.43
  Q 32.06 10.85 32.21 11.26
  Z"
/>
<path fill="#202020" d="
  M 14.01 12.36
  L 13.79 12.58
  A 0.45 0.45 0.0 0 1 13.12 12.55
  Q 11.86 10.99 13.21 10.16
  Q 13.72 9.85 14.15 10.27
  L 15.06 11.19
  Q 15.38 11.51 14.99 11.74
  L 14.25 12.18
  Q 14.12 12.26 14.01 12.36
  Z"
/>
<path fill="#202020" d="
  M 17.43 18.95
  A 0.40 0.39 29.0 0 1 17.21 18.20
  Q 19.69 17.13 19.45 14.25
  A 0.39 0.32 -67.2 0 1 20.06 13.93
  Q 21.34 16.23 24.01 16.15
  A 0.41 0.34 25.4 0 1 24.32 16.81
  Q 21.86 18.14 22.28 21.00
  A 0.39 0.37 30.9 0 1 21.55 21.16
  Q 20.41 18.53 17.43 18.95
  Z"
/>
<path fill="#202020" d="
  M 32.79 20.04
  L 32.32 19.76
  Q 32.05 19.60 32.23 19.34
  L 33.28 17.82
  A 0.84 0.84 0.0 0 1 34.79 18.49
  L 34.47 19.97
  Q 34.40 20.25 34.12 20.25
  Q 33.96 20.24 33.80 20.26
  A 1.63 1.61 57.0 0 1 32.79 20.04
  Z"
/>
<path fill="#202020" d="
  M 22.65 23.41
  Q 23.50 23.59 23.50 24.46
  L 23.50 35.78
  A 0.50 0.49 6.2 0 1 22.90 36.26
  Q 17.69 35.17 12.59 36.79
  A 0.63 0.63 0.0 0 1 11.78 36.05
  L 14.24 25.16
  Q 14.36 24.64 14.83 24.41
  Q 18.60 22.50 22.65 23.41
  Z"
/>
<path fill="#202020" d="
  M 24.81 25.38
  A 1.32 1.32 0.0 0 1 25.89 24.07
  Q 29.83 23.32 33.63 24.67
  A 0.82 0.81 -86.8 0 1 34.15 25.26
  L 36.61 36.30
  A 0.64 0.64 0.0 0 1 35.83 37.06
  Q 30.72 35.84 25.49 36.30
  Q 24.94 36.35 24.93 35.79
  L 24.81 25.38
  Z
  M 32.46 25.48
  Q 29.64 24.67 26.72 25.12
  A 0.55 0.55 0.0 0 0 26.39 26.03
  Q 27.09 26.82 27.93 26.39
  Q 28.45 26.13 29.03 26.19
  L 32.26 26.54
  A 0.54 0.54 0.0 0 0 32.46 25.48
  Z
  M 26.87 31.04
  C 29.08 30.64 33.37 31.25 33.48 30.24
  A 0.88 0.88 0.0 0 0 32.61 29.26
  L 26.86 29.25
  Q 26.21 29.24 26.25 29.89
  L 26.28 30.57
  Q 26.31 31.14 26.87 31.04
  Z
  M 33.90 31.92
  Q 32.95 31.33 32.07 31.85
  A 0.51 0.50 47.1 0 0 32.04 32.70
  Q 33.02 33.37 33.89 32.86
  Q 34.66 32.40 33.90 31.92
  Z
  M 30.6892 32.3068
  A 0.56 0.56 0.0 0 0 30.1234 31.7527
  L 26.8036 31.7874
  A 0.56 0.56 0.0 0 0 26.2495 32.3533
  L 26.2508 32.4732
  A 0.56 0.56 0.0 0 0 26.8166 33.0273
  L 30.1364 32.9926
  A 0.56 0.56 0.0 0 0 30.6905 32.4267
  L 30.6892 32.3068
  Z
  M 34.42 35.56
  A 0.53 0.53 0.0 0 0 34.90 34.80
  L 34.71 34.39
  Q 34.52 34.00 34.08 34.00
  L 27.06 34.01
  A 0.65 0.65 0.0 0 0 26.57 35.09
  Q 27.17 35.78 27.95 35.38
  Q 28.38 35.16 28.87 35.22
  Q 31.63 35.54 34.42 35.56
  Z"
/>
<ellipse fill="#202020" cx="0.00" cy="0.00" transform="translate(11.60,26.93) rotate(106.0)" rx="1.82" ry="0.84"/>
<rect fill="#202020" x="-0.78" y="-6.75" transform="translate(37.81,31.89) rotate(-12.6)" width="1.56" height="13.50" rx="0.75"/>
<path fill="#202020" d="
  M 9.93 30.98
  Q 9.94 29.75 11.23 30.00
  A 0.64 0.62 -80.9 0 1 11.73 30.71
  Q 11.60 31.62 10.80 31.74
  Q 9.91 31.87 9.93 30.98
  Z"
/>
<rect fill="#202020" x="-0.83" y="-2.80" transform="translate(9.55,35.97) rotate(12.6)" width="1.66" height="5.60" rx="0.69"/>
<path fill="#202020" d="
  M 12.03 38.91
  A 0.17 0.17 0.0 0 1 11.86 38.74
  L 11.86 38.67
  A 5.70 1.22 -1.6 0 1 17.52 37.29
  L 17.72 37.29
  A 5.70 1.22 -1.6 0 1 23.45 38.35
  L 23.45 38.42
  A 0.17 0.17 0.0 0 1 23.29 38.59
  L 12.03 38.91
  Z"
/>
<path fill="#202020" d="
  M 25.00 38.36
  A 0.01 0.01 0.0 0 1 24.99 38.35
  L 25.00 38.18
  A 5.04 0.80 2.9 0 1 30.08 37.63
  L 30.43 37.65
  A 5.04 0.80 2.9 0 1 35.43 38.70
  L 35.42 38.87
  A 0.01 0.01 0.0 0 1 35.41 38.88
  L 25.00 38.36
  Z"
/>
<rect fill="#202020" x="8.00" y="40.01" width="32.46" height="1.24" rx="0.60"/>
</svg>
