<?xml version="1.0" encoding="UTF-8" standalone="no"?>
<!DOCTYPE svg PUBLIC "-//W3C//DTD SVG 1.1//EN" "http://www.w3.org/Graphics/SVG/1.1/DTD/svg11.dtd">
<svg xmlns="http://www.w3.org/2000/svg" version="1.1" viewBox="0 0 180 220">
<path fill="#000000" d="
  M 93.25 60.56
  C 107.54 55.95 122.01 52.32 136.27 48.63
  A 2.47 2.46 -14.6 0 1 139.28 50.39
  Q 155.39 111.71 171.26 173.00
  Q 171.47 173.81 171.85 177.11
  C 172.26 180.58 170.02 180.35 167.61 181.03
  Q 149.37 186.12 131.02 190.78
  C 127.53 191.66 126.23 190.92 125.32 187.44
  Q 109.91 128.50 94.56 69.57
  C 94.21 68.25 94.17 66.16 93.07 64.86
  Q 92.73 64.46 92.73 64.99
  Q 92.77 126.50 92.74 188.00
  C 92.74 190.50 91.92 190.99 89.48 190.99
  Q 49.65 191.02 9.81 190.98
  C 7.88 190.98 8.01 189.49 8.01 188.03
  Q 7.99 119.55 8.01 51.06
  Q 8.01 48.49 10.75 48.49
  Q 30.85 48.49 50.76 48.50
  A 0.70 0.69 -89.6 0 0 51.46 47.80
  L 51.59 28.86
  A 1.87 1.86 -89.8 0 1 53.45 27.00
  L 90.73 27.01
  A 2.03 2.02 90.0 0 1 92.75 29.04
  L 92.75 60.20
  A 0.38 0.38 0.0 0 0 93.25 60.56
  Z
  M 87.25 32.75
  A 0.75 0.75 0.0 0 0 86.50 32.00
  L 57.76 32.00
  A 0.75 0.75 0.0 0 0 57.01 32.75
  L 57.01 42.25
  A 0.75 0.75 0.0 0 0 57.76 43.00
  L 86.50 43.00
  A 0.75 0.75 0.0 0 0 87.25 42.25
  L 87.25 32.75
  Z
  M 87.25 49.38
  A 0.88 0.88 0.0 0 0 86.37 48.50
  L 57.89 48.50
  A 0.88 0.88 0.0 0 0 57.01 49.38
  L 57.01 55.88
  A 0.88 0.88 0.0 0 0 57.89 56.76
  L 86.37 56.76
  A 0.88 0.88 0.0 0 0 87.25 55.88
  L 87.25 49.38
  Z
  M 51.49 55.01
  A 1.01 1.01 0.0 0 0 50.48 54.00
  L 14.02 54.00
  A 1.01 1.01 0.0 0 0 13.01 55.01
  L 13.01 61.25
  A 1.01 1.01 0.0 0 0 14.02 62.26
  L 50.48 62.26
  A 1.01 1.01 0.0 0 0 51.49 61.25
  L 51.49 55.01
  Z
  M 134.9641 55.5587
  A 0.89 0.89 0.0 0 0 133.8752 54.9275
  L 99.6655 64.0300
  A 0.89 0.89 0.0 0 0 99.0343 65.1189
  L 101.6159 74.8213
  A 0.89 0.89 0.0 0 0 102.7048 75.4525
  L 136.9145 66.3500
  A 0.89 0.89 0.0 0 0 137.5457 65.2611
  L 134.9641 55.5587
  Z
  M 87.25 63.16
  A 0.91 0.91 0.0 0 0 86.34 62.25
  L 57.92 62.25
  A 0.91 0.91 0.0 0 0 57.01 63.16
  L 57.01 157.58
  A 0.91 0.91 0.0 0 0 57.92 158.49
  L 86.34 158.49
  A 0.91 0.91 0.0 0 0 87.25 157.58
  L 87.25 63.16
  Z
  M 51.49 68.69
  A 0.94 0.94 0.0 0 0 50.55 67.75
  L 14.01 67.75
  A 0.94 0.94 0.0 0 0 13.07 68.69
  L 13.07 149.35
  A 0.94 0.94 0.0 0 0 14.01 150.29
  L 50.55 150.29
  A 0.94 0.94 0.0 0 0 51.49 149.35
  L 51.49 68.69
  Z
  M 139.3995 72.5090
  A 1.12 1.12 0.0 0 0 138.0292 71.7146
  L 104.2640 80.6989
  A 1.12 1.12 0.0 0 0 103.4697 82.0692
  L 104.2205 84.8910
  A 1.12 1.12 0.0 0 0 105.5908 85.6854
  L 139.3560 76.7011
  A 1.12 1.12 0.0 0 0 140.1503 75.3308
  L 139.3995 72.5090
  Z
  M 142.0316 82.5943
  A 0.78 0.78 0.0 0 0 141.0802 82.0361
  L 106.6491 91.0047
  A 0.78 0.78 0.0 0 0 106.0909 91.9561
  L 121.6284 151.6057
  A 0.78 0.78 0.0 0 0 122.5798 152.1639
  L 157.0109 143.1953
  A 0.78 0.78 0.0 0 0 157.5691 142.2439
  L 142.0316 82.5943
  Z
  M 159.2568 148.7876
  A 0.63 0.63 0.0 0 0 158.4852 148.3421
  L 123.8664 157.6182
  A 0.63 0.63 0.0 0 0 123.4209 158.3898
  L 125.9832 167.9524
  A 0.63 0.63 0.0 0 0 126.7548 168.3979
  L 161.3736 159.1218
  A 0.63 0.63 0.0 0 0 161.8191 158.3502
  L 159.2568 148.7876
  Z
  M 51.50 156.73
  A 0.98 0.98 0.0 0 0 50.52 155.75
  L 13.98 155.75
  A 0.98 0.98 0.0 0 0 13.00 156.73
  L 13.00 163.01
  A 0.98 0.98 0.0 0 0 13.98 163.99
  L 50.52 163.99
  A 0.98 0.98 0.0 0 0 51.50 163.01
  L 51.50 156.73
  Z
  M 87.26 165.00
  A 1.00 1.00 0.0 0 0 86.26 164.00
  L 58.02 164.00
  A 1.00 1.00 0.0 0 0 57.02 165.00
  L 57.02 168.50
  A 1.00 1.00 0.0 0 0 58.02 169.50
  L 86.26 169.50
  A 1.00 1.00 0.0 0 0 87.26 168.50
  L 87.26 165.00
  Z
  M 163.5059 165.0051
  A 0.74 0.74 0.0 0 0 162.5996 164.4818
  L 128.1160 173.7216
  A 0.74 0.74 0.0 0 0 127.5928 174.6280
  L 130.2741 184.6349
  A 0.74 0.74 0.0 0 0 131.1804 185.1582
  L 165.6640 175.9184
  A 0.74 0.74 0.0 0 0 166.1872 175.0120
  L 163.5059 165.0051
  Z
  M 51.5128 170.3936
  A 0.87 0.87 0.0 0 0 50.6444 169.5221
  L 13.8844 169.4579
  A 0.87 0.87 0.0 0 0 13.0129 170.3264
  L 12.9872 185.0664
  A 0.87 0.87 0.0 0 0 13.8556 185.9379
  L 50.6156 186.0021
  A 0.87 0.87 0.0 0 0 51.4871 185.1336
  L 51.5128 170.3936
  Z
  M 87.25 175.97
  A 0.97 0.97 0.0 0 0 86.28 175.00
  L 57.98 175.00
  A 0.97 0.97 0.0 0 0 57.01 175.97
  L 57.01 185.03
  A 0.97 0.97 0.0 0 0 57.98 186.00
  L 86.28 186.00
  A 0.97 0.97 0.0 0 0 87.25 185.03
  L 87.25 175.97
  Z"
/>
<path fill="#000000" d="
  M 46.0188 100.5260
  A 2.94 2.94 0.0 0 1 43.0840 103.4711
  L 21.4840 103.5088
  A 2.94 2.94 0.0 0 1 18.5389 100.5740
  L 18.5012 78.9740
  A 2.94 2.94 0.0 0 1 21.4360 76.0289
  L 43.0360 75.9912
  A 2.94 2.94 0.0 0 1 45.9811 78.9260
  L 46.0188 100.5260
  Z
  M 40.5069 82.2556
  A 0.76 0.76 0.0 0 0 39.7456 81.4969
  L 24.7456 81.5231
  A 0.76 0.76 0.0 0 0 23.9870 82.2844
  L 24.0131 97.2444
  A 0.76 0.76 0.0 0 0 24.7744 98.0031
  L 39.7744 97.9769
  A 0.76 0.76 0.0 0 0 40.5330 97.2156
  L 40.5069 82.2556
  Z"
/>
</svg>
