<?xml version="1.0" encoding="UTF-8" standalone="no"?>
<!DOCTYPE svg PUBLIC "-//W3C//DTD SVG 1.1//EN" "http://www.w3.org/Graphics/SVG/1.1/DTD/svg11.dtd">
<svg xmlns="http://www.w3.org/2000/svg" version="1.1" viewBox="0 0 72 72">
<path fill="#ffffff" d="
  M 61.26 65.72
  C 53.20 59.42 44.54 53.13 36.72 46.37
  A 0.73 0.73 0.0 0 0 35.80 46.34
  L 10.90 65.92
  Q 10.46 66.27 10.46 65.71
  L 10.52 6.80
  A 1.00 0.99 -0.3 0 1 11.51 5.81
  L 60.25 5.60
  A 1.47 1.46 -0.2 0 1 61.73 7.06
  L 61.79 65.47
  A 0.33 0.32 19.4 0 1 61.26 65.72
  Z
  M 40.07 16.81
  L 37.67 10.83
  A 1.56 1.56 0.0 0 0 34.79 10.80
  L 32.26 16.71
  A 0.89 0.89 0.0 0 1 31.53 17.24
  L 24.51 17.90
  A 1.33 1.33 0.0 0 0 23.76 20.22
  L 28.96 24.76
  A 0.97 0.96 -62.4 0 1 29.26 25.73
  L 27.61 32.00
  A 0.99 0.98 -61.7 0 0 27.90 32.98
  L 28.83 33.82
  A 0.80 0.80 0.0 0 0 29.79 33.90
  L 35.60 30.30
  A 0.83 0.82 -44.5 0 1 36.47 30.30
  L 41.93 33.75
  A 1.47 1.44 57.3 0 0 42.88 33.97
  C 45.89 33.60 43.26 27.77 42.87 25.78
  A 0.90 0.89 -25.9 0 1 43.17 24.93
  L 48.17 20.80
  A 1.58 1.58 0.0 0 0 47.32 18.01
  L 40.81 17.37
  A 0.91 0.90 -7.6 0 1 40.07 16.81
  Z
  M 15.27 14.49
  A 0.97 0.97 0.0 0 0 14.30 13.52
  L 14.22 13.52
  A 0.97 0.97 0.0 0 0 13.25 14.49
  L 13.25 48.67
  A 0.97 0.97 0.0 0 0 14.22 49.64
  L 14.30 49.64
  A 0.97 0.97 0.0 0 0 15.27 48.67
  L 15.27 14.49
  Z
  M 59.00 14.61
  A 1.10 1.10 0.0 0 0 57.90 13.51
  L 57.86 13.51
  A 1.10 1.10 0.0 0 0 56.76 14.61
  L 56.76 48.63
  A 1.10 1.10 0.0 0 0 57.86 49.73
  L 57.90 49.73
  A 1.10 1.10 0.0 0 0 59.00 48.63
  L 59.00 14.61
  Z"
/>
</svg>
