<?xml version="1.0" encoding="UTF-8" standalone="no"?>
<!DOCTYPE svg PUBLIC "-//W3C//DTD SVG 1.1//EN" "http://www.w3.org/Graphics/SVG/1.1/DTD/svg11.dtd">
<svg xmlns="http://www.w3.org/2000/svg" version="1.1" viewBox="0 0 386 452">
<path fill="#ffffff" d="
  M 330.56 68.95
  C 335.47 69.04 340.46 68.59 345.07 69.84
  Q 368.95 76.29 376.98 100.54
  C 379.18 107.19 379.74 115.56 379.74 123.64
  Q 379.76 260.32 379.76 397.00
  C 379.76 431.43 358.74 449.99 324.78 449.99
  Q 190.01 450.00 55.25 450.01
  Q 46.83 450.01 36.89 446.70
  C 14.01 439.10 4.26 420.79 4.26 397.24
  Q 4.24 259.37 4.25 121.50
  C 4.25 96.59 13.93 76.52 39.43 70.21
  Q 44.41 68.97 52.21 68.98
  Q 113.94 69.03 175.46 68.99
  A 0.63 0.62 -84.3 0 0 176.07 68.48
  C 182.46 35.01 206.19 10.60 239.61 4.17
  Q 249.44 2.27 259.50 3.22
  C 295.47 6.59 323.26 32.92 329.97 68.46
  A 0.62 0.60 -4.6 0 0 330.56 68.95
  Z
  M 316.69 80.99
  A 63.70 63.70 0.0 0 0 252.99 17.29
  A 63.70 63.70 0.0 0 0 189.29 80.99
  A 63.70 63.70 0.0 0 0 252.99 144.69
  A 63.70 63.70 0.0 0 0 316.69 80.99
  Z
  M 238.69 157.69
  C 207.79 151.22 184.54 129.33 177.30 98.37
  Q 175.87 92.22 174.77 85.90
  A 0.77 0.76 -5.9 0 0 173.98 85.26
  C 170.43 85.37 166.45 85.01 163.34 85.01
  Q 110.77 84.98 58.21 85.02
  C 33.81 85.03 20.94 95.61 20.95 121.00
  Q 20.99 258.53 21.01 396.06
  C 21.01 418.47 31.41 432.44 55.00 432.45
  Q 190.96 432.51 326.93 432.49
  C 348.97 432.49 362.99 422.16 363.00 398.75
  Q 363.04 258.65 362.96 118.57
  C 362.95 99.14 351.37 86.12 331.92 85.18
  A 1.24 1.24 0.0 0 0 330.62 86.36
  C 328.47 131.86 283.03 166.97 238.69 157.69
  Z"
/>
<path fill="#ffffff" d="
  M 273.48 91.53
  C 276.27 94.42 282.17 98.71 281.21 103.23
  C 280.42 106.95 276.84 109.82 273.04 109.06
  C 267.59 107.98 252.28 90.41 247.78 85.71
  C 246.72 84.60 245.93 82.80 245.91 81.30
  Q 245.46 50.40 245.80 39.02
  C 246.09 29.28 259.78 28.71 259.93 38.92
  Q 260.21 58.19 260.13 77.46
  A 1.19 1.18 22.2 0 0 260.49 78.31
  Q 267.01 84.82 273.48 91.53
  Z"
/>
<rect fill="#ffffff" x="43.77" y="142.77" width="116.60" height="16.70" rx="8.22"/>
<rect fill="#ffffff" x="43.79" y="200.02" width="116.58" height="16.70" rx="8.22"/>
<rect fill="#ffffff" x="43.76" y="257.25" width="281.70" height="16.74" rx="8.31"/>
<rect fill="#ffffff" x="43.63" y="314.27" width="281.82" height="16.72" rx="8.31"/>
<rect fill="#ffffff" x="43.77" y="372.00" width="281.68" height="16.74" rx="8.31"/>
</svg>
