<?xml version="1.0" encoding="UTF-8" standalone="no"?>
<!DOCTYPE svg PUBLIC "-//W3C//DTD SVG 1.1//EN" "http://www.w3.org/Graphics/SVG/1.1/DTD/svg11.dtd">
<svg xmlns="http://www.w3.org/2000/svg" version="1.1" viewBox="0 0 512 512">
<path fill="#000000" d="
  M 373.31 0.00
  L 374.06 0.00
  C 440.81 1.19 494.84 45.95 509.26 110.99
  Q 511.36 120.50 512.00 137.06
  L 512.00 140.56
  Q 510.15 197.43 471.52 236.27
  Q 413.59 294.48 393.67 314.16
  C 382.63 325.06 366.25 325.65 354.82 315.52
  C 345.96 307.65 343.26 293.14 348.94 282.51
  Q 351.04 278.57 358.43 271.20
  Q 392.88 236.84 427.14 202.29
  Q 436.59 192.75 440.50 187.44
  C 466.39 152.23 460.37 102.30 425.94 74.21
  C 395.56 49.43 352.27 49.31 321.23 73.98
  Q 317.99 76.55 309.00 85.50
  Q 272.73 121.61 236.48 157.74
  Q 227.32 166.86 214.77 166.00
  C 191.34 164.39 180.86 135.84 197.38 119.12
  Q 233.00 83.07 268.89 47.29
  Q 278.73 37.46 283.39 33.52
  Q 321.60 1.10 373.31 0.00
  Z"
/>
<rect fill="#000000" x="-27.66" y="-138.22" transform="translate(256.00,256.00) rotate(44.9)" width="55.32" height="276.44" rx="27.27"/>
<path fill="#000000" d="
  M 0.00 375.69
  L 0.00 371.19
  Q 1.70 320.89 33.28 283.65
  Q 37.15 279.07 47.04 269.14
  Q 93.93 222.03 118.72 197.47
  C 135.43 180.91 163.20 190.82 165.94 214.06
  C 167.26 225.25 162.08 232.26 153.79 240.57
  Q 120.25 274.14 86.69 307.69
  C 81.29 313.08 74.77 319.70 70.42 326.00
  C 46.23 361.04 51.90 407.94 84.19 436.31
  C 112.97 461.60 156.66 463.12 187.58 440.39
  Q 192.61 436.69 202.39 427.01
  Q 239.53 390.22 276.43 353.18
  C 281.24 348.35 289.17 345.82 296.04 345.96
  C 316.83 346.38 329.66 369.86 318.81 387.77
  Q 316.87 390.96 310.10 397.74
  C 283.82 424.06 257.91 451.19 230.69 476.53
  C 178.79 524.82 95.10 522.76 43.95 474.45
  Q 2.26 435.08 0.00 375.69
  Z"
/>
</svg>
