<?xml version="1.0" encoding="UTF-8" standalone="no"?>
<!DOCTYPE svg PUBLIC "-//W3C//DTD SVG 1.1//EN" "http://www.w3.org/Graphics/SVG/1.1/DTD/svg11.dtd">
<svg xmlns="http://www.w3.org/2000/svg" version="1.1" viewBox="0 0 48 48">
<path fill="#ffffff" d="
  M 15.42 7.01
  Q 19.67 9.78 16.92 14.09
  A 0.88 0.87 -73.6 0 1 16.18 14.50
  L 9.79 14.50
  A 0.89 0.87 -12.9 0 1 9.00 14.02
  Q 6.87 9.73 10.67 7.01
  A 0.90 0.90 0.0 0 0 11.02 6.07
  L 10.58 4.27
  A 0.64 0.63 -6.8 0 1 11.20 3.49
  L 15.07 3.50
  A 0.61 0.61 0.0 0 1 15.66 4.28
  L 15.11 6.19
  A 0.75 0.75 0.0 0 0 15.42 7.01
  Z
  M 15.9775 10.6237
  A 0.63 0.63 0.0 0 0 15.3744 9.9679
  L 10.7385 9.7736
  A 0.63 0.63 0.0 0 0 10.0826 10.3767
  L 10.0625 10.8563
  A 0.63 0.63 0.0 0 0 10.6656 11.5121
  L 15.3015 11.7064
  A 0.63 0.63 0.0 0 0 15.9574 11.1033
  L 15.9775 10.6237
  Z"
/>
<path fill="#ffffff" d="
  M 20.27 15.17
  C 22.57 8.11 36.98 9.00 42.63 9.48
  A 0.38 0.38 0.0 0 1 42.81 10.18
  C 38.46 12.99 26.73 19.62 21.87 16.72
  Q 21.30 16.38 21.93 16.17
  L 28.61 13.87
  Q 29.13 13.70 28.70 13.35
  C 28.08 12.85 22.27 14.87 21.25 15.19
  A 1.35 1.33 4.5 0 0 20.49 15.83
  L 20.29 16.21
  A 0.90 0.89 9.8 0 1 19.65 16.66
  L 12.75 17.69
  A 0.43 0.43 0.0 0 1 12.25 17.26
  L 12.25 16.99
  A 0.07 0.07 0.0 0 1 12.31 16.92
  L 19.50 15.83
  A 0.96 0.96 0.0 0 0 20.27 15.17
  Z"
/>
<path fill="#ffffff" d="
  M 21.29 40.34
  C 16.94 38.92 13.24 37.68 8.50 37.58
  A 0.68 0.68 0.0 0 1 7.83 36.90
  L 7.72 19.60
  A 0.69 0.68 -0.4 0 1 8.41 18.91
  Q 16.23 18.93 23.35 22.21
  A 1.06 1.03 46.0 0 0 24.17 22.24
  C 29.11 20.39 35.26 18.13 39.80 19.28
  A 0.60 0.60 0.0 0 1 40.26 19.86
  L 40.23 36.72
  A 0.96 0.95 2.2 0 1 39.20 37.67
  C 33.11 37.24 26.68 42.10 21.29 40.34
  Z
  M 13.67 22.07
  Q 12.11 21.60 10.55 22.36
  Q 9.74 22.76 10.60 23.03
  Q 11.45 23.29 12.40 22.98
  A 1.61 1.61 0.0 0 1 13.36 22.98
  L 20.74 25.30
  A 0.40 0.39 -78.2 0 0 21.25 24.96
  C 21.36 23.90 14.49 22.32 13.67 22.07
  Z
  M 36.53 22.01
  C 33.48 22.00 29.77 23.13 27.10 24.55
  Q 26.59 24.81 27.12 25.04
  Q 28.05 25.43 29.31 24.80
  Q 32.87 23.01 37.71 22.92
  Q 38.10 22.91 37.80 22.65
  L 37.44 22.34
  A 1.45 1.41 64.2 0 0 36.53 22.01
  Z
  M 21.19 27.40
  C 19.72 26.67 11.28 23.57 10.62 25.31
  A 0.39 0.39 0.0 0 0 10.97 25.84
  Q 15.98 26.04 20.54 28.21
  C 20.78 28.32 21.14 28.27 21.31 28.08
  A 0.43 0.43 0.0 0 0 21.19 27.40
  Z
  M 26.93 27.99
  Q 30.20 27.68 33.01 26.23
  Q 33.50 25.98 34.05 25.99
  L 37.23 26.01
  A 0.24 0.24 0.0 0 0 37.44 25.66
  L 37.24 25.28
  A 0.71 0.69 -15.5 0 0 36.57 24.91
  Q 31.45 25.19 26.77 27.42
  Q 25.22 28.15 26.93 27.99
  Z
  M 21.53 30.18
  C 19.90 29.47 12.30 26.38 10.99 28.45
  Q 10.71 28.90 11.24 28.89
  Q 16.04 28.82 20.34 30.85
  Q 21.12 31.21 21.59 30.91
  A 0.42 0.42 0.0 0 0 21.53 30.18
  Z
  M 31.75 28.57
  C 30.67 29.06 27.03 30.02 27.28 30.86
  A 0.59 0.58 -19.6 0 0 28.07 31.23
  L 30.46 30.19
  Q 30.95 29.98 31.49 30.03
  Q 32.09 30.09 32.51 29.65
  A 0.67 0.67 0.0 0 0 31.75 28.57
  Z
  M 22.01 33.51
  C 21.99 32.70 12.03 29.26 10.68 31.32
  A 0.42 0.41 -77.1 0 0 11.08 31.96
  C 15.26 31.39 17.69 33.15 21.48 33.95
  A 0.44 0.44 0.0 0 0 22.01 33.51
  Z
  M 21.76 35.88
  C 20.56 35.37 10.51 31.47 10.99 34.22
  A 0.58 0.58 0.0 0 0 11.57 34.69
  Q 16.54 34.61 21.04 36.84
  A 0.51 0.50 36.0 0 0 21.63 36.75
  L 21.88 36.50
  A 0.38 0.38 0.0 0 0 21.76 35.88
  Z"
/>
<path fill="#ffffff" d="
  M 40.99 37.92
  C 41.23 32.69 41.33 27.69 41.15 22.44
  A 0.64 0.64 0.0 0 1 41.83 21.78
  L 43.19 21.85
  A 0.59 0.59 0.0 0 1 43.75 22.44
  L 43.75 39.80
  A 0.93 0.92 0.6 0 1 42.80 40.72
  C 37.46 40.58 32.25 42.63 27.20 44.14
  C 25.85 44.55 22.81 44.79 21.48 44.31
  Q 13.45 41.39 4.95 40.59
  A 0.60 0.60 0.0 0 1 4.40 39.99
  L 4.20 22.40
  A 0.65 0.64 -86.6 0 1 4.93 21.75
  L 6.07 21.90
  A 0.73 0.72 -86.8 0 1 6.70 22.61
  L 6.87 38.07
  A 0.57 0.57 0.0 0 0 7.43 38.64
  Q 15.04 38.87 21.93 41.69
  C 22.85 42.06 25.10 42.19 26.00 41.79
  Q 32.72 38.78 40.13 38.75
  A 0.87 0.86 -88.6 0 0 40.99 37.92
  Z"
/>
</svg>
