<?xml version="1.0" encoding="UTF-8" standalone="no"?>
<!DOCTYPE svg PUBLIC "-//W3C//DTD SVG 1.1//EN" "http://www.w3.org/Graphics/SVG/1.1/DTD/svg11.dtd">
<svg xmlns="http://www.w3.org/2000/svg" version="1.1" viewBox="0 0 144 144">
<path fill="#000000" d="
  M 118.31 0.00
  L 121.81 0.00
  Q 141.45 3.06 144.00 22.81
  L 144.00 25.56
  C 140.91 46.44 117.47 56.12 102.50 40.26
  A 1.00 0.99 -34.9 0 0 101.32 40.05
  L 47.81 66.98
  A 0.66 0.66 0.0 0 0 47.46 67.72
  Q 48.45 71.96 47.51 76.22
  A 0.77 0.77 0.0 0 0 47.91 77.07
  L 101.33 103.95
  A 1.07 1.07 0.0 0 0 102.59 103.73
  C 109.05 96.78 118.40 94.37 127.51 97.36
  Q 141.81 102.06 144.00 118.81
  L 144.00 121.56
  Q 141.12 141.22 121.44 144.00
  L 118.44 144.00
  C 103.87 142.42 94.05 130.14 96.40 115.55
  A 0.74 0.74 0.0 0 0 96.00 114.78
  L 42.48 87.97
  A 0.77 0.77 0.0 0 0 41.58 88.13
  C 26.64 104.02 3.16 94.64 0.00 73.69
  L 0.00 70.19
  C 2.61 49.18 26.57 40.46 41.62 55.85
  A 0.82 0.82 0.0 0 0 42.57 56.00
  L 95.96 29.20
  A 0.90 0.90 0.0 0 0 96.44 28.25
  C 93.97 14.01 103.89 1.59 118.31 0.00
  Z"
/>
</svg>
