<?xml version="1.0" encoding="UTF-8" standalone="no"?>
<!DOCTYPE svg PUBLIC "-//W3C//DTD SVG 1.1//EN" "http://www.w3.org/Graphics/SVG/1.1/DTD/svg11.dtd">
<svg xmlns="http://www.w3.org/2000/svg" version="1.1" viewBox="0 0 180 220">
<g stroke-width="2.00" fill="none" stroke-linecap="butt">
<path stroke="#2c262c" stroke-opacity="0.996" vector-effect="non-scaling-stroke" d="
  M 134.44 33.32
  Q 145.40 34.54 156.27 33.29"
/>
<path stroke="#2c262c" stroke-opacity="0.996" vector-effect="non-scaling-stroke" d="
  M 23.18 178.61
  Q 24.10 169.01 23.88 159.51
  A 0.21 0.21 0.0 0 0 23.75 159.33
  L 23.44 159.23
  A 0.30 0.30 0.0 0 0 23.05 159.53
  Q 23.09 160.19 22.79 160.75"
/>
<path stroke="#2c262c" stroke-opacity="0.996" vector-effect="non-scaling-stroke" d="
  M 142.25 39.29
  Q 141.89 38.96 141.56 38.97
  A 0.61 0.60 -89.0 0 0 140.97 39.55
  Q 140.91 40.96 142.25 41.21"
/>
<path stroke="#2c262c" stroke-opacity="0.996" vector-effect="non-scaling-stroke" d="
  M 19.75 50.96
  Q 19.05 54.72 22.40 55.22
  A 1.13 1.13 0.0 0 0 23.70 54.11
  L 23.75 44.82
  A 1.09 1.09 0.0 0 0 22.66 43.72
  Q 21.35 43.73 21.40 44.93"
/>
<path stroke="#2c262c" stroke-opacity="0.996" vector-effect="non-scaling-stroke" d="
  M 21.29 87.50
  Q 21.53 88.73 22.91 88.91
  A 0.62 0.61 5.3 0 0 23.60 88.34
  C 23.70 86.26 24.35 78.80 23.09 77.32
  A 0.68 0.68 0.0 0 0 22.11 77.26
  Q 21.65 77.69 21.79 78.00"
/>
<path stroke="#2c262c" stroke-opacity="0.996" vector-effect="non-scaling-stroke" d="
  M 53.22 140.04
  Q 64.59 141.26 76.03 140.71
  A 0.51 0.50 88.8 0 0 76.51 140.20
  L 76.50 139.79"
/>
</g>
<path fill="#000000" d="
  M 134.44 33.32
  Q 145.40 34.54 156.27 33.29
  Q 160.30 32.00 162.47 35.10
  A 1.65 1.59 28.5 0 1 162.76 36.02
  C 162.73 84.91 162.31 133.85 162.91 182.72
  Q 162.99 188.99 162.74 195.27
  A 0.60 0.60 0.0 0 1 162.22 195.84
  C 159.94 196.17 157.25 195.80 155.51 195.81
  Q 93.41 196.27 32.02 195.62
  A 2.29 2.29 0.0 0 1 29.75 193.33
  L 29.75 184.35
  A 0.56 0.56 0.0 0 0 29.16 183.79
  L 25.78 183.98
  A 0.61 0.60 -10.3 0 1 25.16 183.56
  L 24.95 182.92
  A 1.86 1.80 -79.3 0 0 24.39 182.07
  Q 22.66 180.61 23.18 178.61
  Q 24.10 169.01 23.88 159.51
  A 0.21 0.21 0.0 0 0 23.75 159.33
  L 23.44 159.23
  A 0.30 0.30 0.0 0 0 23.05 159.53
  Q 23.09 160.19 22.79 160.75
  L 22.73 159.62
  A 0.78 0.78 0.0 0 0 22.25 158.93
  C 10.35 153.98 9.97 138.19 22.29 133.83
  A 0.70 0.68 80.7 0 0 22.75 133.17
  L 22.75 129.58
  A 0.84 0.84 0.0 0 0 22.19 128.79
  C 9.76 124.44 10.60 108.59 22.36 103.58
  A 0.75 0.74 78.8 0 0 22.81 102.89
  L 22.73 96.27
  A 0.72 0.72 0.0 0 0 22.28 95.62
  C 10.23 90.88 10.05 75.44 22.28 70.45
  A 0.76 0.75 79.1 0 0 22.75 69.75
  L 22.75 63.03
  A 0.88 0.88 0.0 0 0 22.22 62.22
  C 10.24 57.13 10.16 41.91 22.12 36.99
  A 0.80 0.78 -9.7 0 0 22.61 36.31
  C 22.99 31.46 21.50 26.36 25.12 22.85
  A 1.28 1.25 -66.1 0 1 25.99 22.50
  L 123.19 22.50
  A 1.13 1.11 67.1 0 1 123.98 22.83
  L 134.44 33.32
  Z
  M 35.44 92.69
  Q 34.10 94.17 29.97 95.85
  A 0.73 0.72 79.6 0 0 29.52 96.51
  L 29.45 121.48
  A 0.47 0.47 0.0 0 0 30.24 121.82
  Q 32.33 119.89 33.16 117.15
  A 1.58 1.56 82.6 0 1 33.82 116.28
  Q 37.10 114.23 38.99 117.69
  A 2.43 2.39 39.1 0 1 39.19 119.50
  Q 37.07 126.72 29.96 129.10
  A 0.64 0.63 -9.7 0 0 29.53 129.70
  L 29.44 151.05
  A 0.72 0.72 0.0 0 0 30.72 151.50
  C 32.12 149.72 32.94 146.78 34.52 145.86
  C 36.38 144.79 38.47 146.16 39.00 148.02
  C 40.30 152.68 33.53 157.92 29.95 159.22
  A 0.68 0.68 0.0 0 0 29.50 159.86
  L 29.50 175.50
  A 0.50 0.50 0.0 0 0 30.00 176.00
  L 141.50 176.00
  A 0.50 0.50 0.0 0 0 142.00 175.50
  L 142.00 53.28
  A 0.48 0.48 0.0 0 0 141.52 52.80
  Q 132.01 52.71 122.50 52.75
  C 120.91 52.76 119.75 50.95 119.75 49.32
  Q 119.76 39.71 119.74 30.21
  A 0.72 0.71 0.0 0 0 119.02 29.50
  L 30.13 29.50
  A 0.62 0.61 90.0 0 0 29.52 30.12
  L 29.46 54.66
  A 0.46 0.46 0.0 0 0 30.21 55.02
  Q 32.06 53.51 32.94 51.17
  C 34.56 46.85 40.32 49.17 38.92 53.50
  Q 36.78 60.11 29.97 62.40
  A 0.65 0.64 -9.5 0 0 29.53 63.01
  L 29.44 88.20
  A 0.45 0.45 0.0 0 0 30.19 88.53
  C 32.31 86.60 34.00 79.56 38.17 83.06
  C 40.87 85.32 37.56 90.34 35.44 92.69
  Z
  M 137.16 46.47
  A 0.61 0.61 0.0 0 0 137.59 45.43
  L 127.26 35.17
  A 0.61 0.61 0.0 0 0 126.22 35.61
  L 126.26 45.90
  A 0.61 0.61 0.0 0 0 126.87 46.51
  L 137.16 46.47
  Z
  M 142.25 41.21
  L 148.94 47.85
  A 1.39 1.36 20.7 0 1 149.34 48.71
  Q 150.01 56.84 150.01 60.75
  Q 150.00 122.23 150.00 183.69
  A 0.34 0.34 0.0 0 1 149.66 184.03
  L 36.69 183.94
  A 0.56 0.56 0.0 0 0 36.13 184.50
  L 36.13 188.69
  A 0.55 0.55 0.0 0 0 36.68 189.24
  Q 87.23 189.28 137.79 189.23
  C 142.11 189.22 149.48 188.79 155.39 189.13
  A 0.59 0.59 0.0 0 0 156.00 188.67
  C 156.52 186.26 155.99 183.15 156.00 181.42
  Q 156.00 110.76 156.00 40.06
  A 0.51 0.50 -89.4 0 0 155.51 39.55
  L 142.25 39.29
  Q 141.89 38.96 141.56 38.97
  A 0.61 0.60 -89.0 0 0 140.97 39.55
  Q 140.91 40.96 142.25 41.21
  Z
  M 21.40 44.93
  Q 19.29 47.48 19.75 50.96
  Q 19.05 54.72 22.40 55.22
  A 1.13 1.13 0.0 0 0 23.70 54.11
  L 23.75 44.82
  A 1.09 1.09 0.0 0 0 22.66 43.72
  Q 21.35 43.73 21.40 44.93
  Z
  M 21.79 78.00
  Q 17.83 82.52 21.29 87.50
  Q 21.53 88.73 22.91 88.91
  A 0.62 0.61 5.3 0 0 23.60 88.34
  C 23.70 86.26 24.35 78.80 23.09 77.32
  A 0.68 0.68 0.0 0 0 22.11 77.26
  Q 21.65 77.69 21.79 78.00
  Z
  M 23.53 121.00
  C 23.18 117.13 23.46 114.51 23.34 111.13
  A 0.50 0.49 86.2 0 0 22.80 110.65
  C 18.00 111.05 19.29 119.28 21.61 121.69
  A 1.12 1.12 0.0 0 0 22.47 122.04
  Q 23.62 122.01 23.53 121.00
  Z
  M 21.05 141.43
  Q 17.77 146.42 21.07 151.31
  A 1.21 1.20 -62.0 0 0 23.27 150.63
  L 23.27 142.10
  A 1.21 1.21 0.0 0 0 21.05 141.43
  Z"
/>
<path fill="#594d58" fill-opacity="0.992" d="
  M 134.44 33.32
  Q 145.41 32.55 156.27 33.29
  Q 145.40 34.54 134.44 33.32
  Z"
/>
<path fill="#594d58" fill-opacity="0.992" d="
  M 142.25 39.29
  L 142.25 41.21
  Q 140.91 40.96 140.97 39.55
  A 0.61 0.60 -89.0 0 1 141.56 38.97
  Q 141.89 38.96 142.25 39.29
  Z"
/>
<path fill="#594d58" fill-opacity="0.992" d="
  M 19.75 50.96
  Q 19.99 53.69 22.30 53.90
  A 0.49 0.49 0.0 0 0 22.84 53.43
  Q 23.00 49.64 23.01 46.08
  C 23.01 44.94 22.39 44.80 21.40 44.93
  Q 21.35 43.73 22.66 43.72
  A 1.09 1.09 0.0 0 1 23.75 44.82
  L 23.70 54.11
  A 1.13 1.13 0.0 0 1 22.40 55.22
  Q 19.05 54.72 19.75 50.96
  Z"
/>
<rect fill="#000000" x="49.77" y="59.76" width="79.70" height="6.48" rx="3.20"/>
<path fill="#594d58" fill-opacity="0.992" d="
  M 21.29 87.50
  Q 21.78 88.03 22.40 88.03
  A 0.51 0.50 -2.2 0 0 22.90 87.50
  C 22.82 86.21 23.27 77.68 21.79 78.00
  Q 21.65 77.69 22.11 77.26
  A 0.68 0.68 0.0 0 1 23.09 77.32
  C 24.35 78.80 23.70 86.26 23.60 88.34
  A 0.62 0.61 5.3 0 1 22.91 88.91
  Q 21.53 88.73 21.29 87.50
  Z"
/>
<rect fill="#000000" x="49.76" y="79.76" width="79.70" height="6.48" rx="3.20"/>
<rect fill="#000000" x="49.76" y="99.75" width="79.70" height="6.50" rx="3.20"/>
<rect fill="#000000" x="49.76" y="119.75" width="79.72" height="6.50" rx="3.20"/>
<path fill="#000000" d="
  M 53.22 140.04
  Q 64.59 141.26 76.03 140.71
  A 0.51 0.50 88.8 0 0 76.51 140.20
  L 76.50 139.79
  C 77.97 139.73 79.86 139.50 81.10 140.16
  C 84.22 141.81 82.98 146.21 79.06 146.22
  Q 65.91 146.28 52.75 146.24
  C 49.01 146.23 48.42 139.60 53.22 140.04
  Z"
/>
<path fill="#594d58" fill-opacity="0.992" d="
  M 53.22 140.04
  L 76.50 139.79
  L 76.51 140.20
  A 0.51 0.50 88.8 0 1 76.03 140.71
  Q 64.59 141.26 53.22 140.04
  Z"
/>
<path fill="#594d58" fill-opacity="0.992" d="
  M 23.18 178.61
  Q 22.40 169.55 22.79 160.75
  Q 23.09 160.19 23.05 159.53
  A 0.30 0.30 0.0 0 1 23.44 159.23
  L 23.75 159.33
  A 0.21 0.21 0.0 0 1 23.88 159.51
  Q 24.10 169.01 23.18 178.61
  Z"
/>
</svg>
