<?xml version="1.0" encoding="UTF-8" standalone="no"?>
<!DOCTYPE svg PUBLIC "-//W3C//DTD SVG 1.1//EN" "http://www.w3.org/Graphics/SVG/1.1/DTD/svg11.dtd">
<svg xmlns="http://www.w3.org/2000/svg" version="1.1" viewBox="0 0 48 48">
<path fill="#000000" d="
  M 12.50 40.00
  L 19.09 40.00
  A 1.38 1.35 66.7 0 1 20.04 40.39
  L 23.20 43.50
  Q 23.52 43.82 23.07 43.85
  Q 19.72 44.03 12.77 43.96
  C 9.09 43.92 7.99 42.07 8.00 38.53
  C 8.02 27.91 7.34 16.74 8.47 6.19
  A 1.33 1.29 73.5 0 1 8.91 5.35
  C 11.88 2.76 33.67 4.02 35.50 4.04
  C 38.00 4.06 39.96 5.46 39.98 8.04
  Q 40.02 15.40 39.99 22.80
  A 0.39 0.39 0.0 0 1 39.38 23.12
  L 36.42 21.04
  A 1.01 1.00 -72.4 0 1 36.00 20.22
  L 36.00 8.67
  A 0.66 0.65 90.0 0 0 35.35 8.01
  L 26.63 7.99
  A 0.63 0.63 0.0 0 0 26.00 8.62
  L 26.00 23.05
  Q 26.00 23.97 25.31 23.36
  L 21.32 19.86
  A 0.58 0.58 0.0 0 0 20.55 19.87
  L 16.43 23.65
  A 0.25 0.25 0.0 0 1 16.01 23.46
  L 16.00 8.77
  A 0.69 0.68 -89.1 0 0 15.34 8.08
  L 12.65 7.97
  A 0.63 0.63 0.0 0 0 12.00 8.60
  L 12.00 39.50
  A 0.50 0.50 0.0 0 0 12.50 40.00
  Z"
/>
<path fill="#000000" d="
  M 35.32 40.91
  C 23.64 46.19 16.63 29.67 27.19 24.90
  C 33.73 21.94 41.77 27.58 39.63 35.17
  Q 39.30 36.34 39.04 37.52
  A 0.97 0.96 29.1 0 0 39.30 38.42
  L 44.44 43.57
  A 0.62 0.61 45.6 0 1 44.44 44.45
  L 42.34 46.49
  A 0.53 0.52 -44.6 0 1 41.61 46.49
  L 36.19 41.07
  A 0.78 0.78 0.0 0 0 35.32 40.91
  Z
  M 35.96 33.01
  A 4.95 4.95 0.0 0 0 31.01 28.06
  A 4.95 4.95 0.0 0 0 26.06 33.01
  A 4.95 4.95 0.0 0 0 31.01 37.96
  A 4.95 4.95 0.0 0 0 35.96 33.01
  Z"
/>
</svg>
