<?xml version="1.0" encoding="UTF-8" standalone="no"?>
<!DOCTYPE svg PUBLIC "-//W3C//DTD SVG 1.1//EN" "http://www.w3.org/Graphics/SVG/1.1/DTD/svg11.dtd">
<svg xmlns="http://www.w3.org/2000/svg" version="1.1" viewBox="0 0 512 512">
<g stroke-width="2.00" fill="none" stroke-linecap="butt">
<path stroke="#7fa551" vector-effect="non-scaling-stroke" d="
  M 331.25 369.54
  Q 327.38 369.15 325.38 366.38
  Q 324.18 364.72 323.93 361.86
  Q 323.75 359.81 323.75 357.00
  Q 323.75 348.77 323.75 340.55
  Q 323.75 335.32 325.18 333.25
  Q 327.46 329.94 332.75 329.75
  Q 371.70 328.32 400.14 302.23
  Q 400.54 301.86 400.01 301.75
  Q 382.27 297.98 373.25 281.81
  A 0.64 0.64 56.8 0 0 372.30 281.61
  Q 345.75 301.66 313.00 294.00
  Q 311.23 293.59 305.69 290.73
  A 0.89 0.88 -46.6 0 0 304.82 290.76
  Q 288.26 300.67 269.13 305.34
  A 0.99 0.99 -85.9 0 0 268.44 305.94
  Q 263.94 316.85 254.68 324.15
  Q 244.16 332.43 231.49 333.76
  Q 221.62 334.79 211.81 331.29
  Q 193.62 324.82 185.26 305.89
  A 0.98 0.98 -4.8 0 0 184.58 305.33
  Q 165.96 300.98 149.67 291.01
  A 0.64 0.62 -51.4 0 0 148.89 291.11
  Q 129.95 310.53 128.25 338.50
  Q 126.01 375.28 146.14 404.71
  Q 146.20 404.80 147.59 406.58
  Q 149.52 409.07 149.49 412.01
  Q 149.46 415.46 146.91 417.70
  Q 144.51 419.81 141.22 419.26
  Q 138.83 418.85 136.62 416.43
  Q 132.18 411.60 129.01 405.47
  Q 128.00 403.52 128.00 405.72
  Q 128.00 419.38 128.06 432.50
  Q 128.08 437.41 124.79 439.63
  Q 122.76 440.99 117.93 441.05
  Q 103.41 441.22 88.22 441.19
  A 0.38 0.38 -8.0 0 0 87.85 441.68
  Q 89.46 447.34 90.83 452.58
  Q 90.85 452.67 92.47 458.25
  Q 96.68 472.73 90.93 486.95
  Q 90.39 488.30 91.81 487.99
  Q 93.60 487.59 95.50 487.60
  Q 154.75 487.75 214.00 487.88
  Q 249.25 487.96 284.50 487.79
  Q 322.03 487.61 360.30 487.94
  A 0.65 0.65 -11.2 0 0 360.91 487.04
  Q 356.79 477.32 357.74 467.03
  Q 358.05 463.57 360.60 454.26
  Q 362.33 447.93 363.82 441.54
  A 0.37 0.37 -84.1 0 0 363.45 441.08
  Q 349.97 441.50 336.50 441.13
  Q 330.00 440.95 328.54 440.48
  Q 323.75 438.92 323.75 432.75
  Q 323.75 416.25 323.75 399.75
  Q 323.75 391.77 331.25 390.21"
/>
<path stroke="#878921" vector-effect="non-scaling-stroke" d="
  M 198.95 17.09
  Q 151.31 26.29 118.21 61.45
  Q 110.52 69.62 104.56 79.11
  Q 100.35 85.82 99.68 92.56
  Q 99.45 94.80 101.70 94.62
  Q 113.57 93.68 123.04 89.50"
/>
<path stroke="#949321" vector-effect="non-scaling-stroke" d="
  M 123.04 89.50
  Q 140.49 82.76 156.68 73.38
  Q 160.46 71.18 163.50 72.00
  Q 169.70 73.66 169.18 79.98
  Q 169.04 81.74 168.12 83.21
  Q 167.12 84.82 165.81 85.81
  Q 161.17 89.33 158.49 94.52
  Q 157.50 96.44 159.07 97.92
  Q 165.20 103.75 174.05 101.16
  Q 180.08 99.40 185.58 96.35
  Q 197.04 90.00 207.06 81.56
  Q 210.32 78.82 213.93 80.06
  Q 217.14 81.17 218.59 84.04
  Q 220.12 87.06 218.55 90.81
  Q 216.13 96.57 216.06 99.81
  Q 215.99 103.08 219.75 102.00
  Q 229.91 99.09 236.84 94.10
  Q 243.00 89.67 248.50 94.79"
/>
<path stroke="#949b79" vector-effect="non-scaling-stroke" d="
  M 248.50 94.79
  Q 251.84 101.30 246.69 105.44
  Q 241.56 109.55 231.81 113.81
  Q 225.52 116.56 219.44 116.93
  Q 212.85 117.33 208.47 114.70
  Q 203.26 111.57 201.52 104.79
  A 0.32 0.32 -24.1 0 0 201.02 104.60
  Q 191.37 111.21 180.33 114.65
  Q 171.91 117.28 165.95 116.67
  Q 158.57 115.92 151.94 111.31
  Q 145.70 106.97 143.02 99.56"
/>
<path stroke="#879070" vector-effect="non-scaling-stroke" d="
  M 143.02 99.56
  Q 143.83 97.78 142.58 97.83
  Q 142.14 97.85 141.35 98.21
  Q 129.58 103.65 117.08 107.47
  A 0.95 0.94 -87.1 0 0 116.49 108.01
  Q 110.18 124.28 109.00 141.50
  Q 108.73 145.42 108.70 161.49
  Q 108.66 179.75 109.00 198.01
  A 0.24 0.24 80.0 0 0 109.31 198.23
  Q 120.38 194.53 132.00 196.46"
/>
<path stroke="#949b79" vector-effect="non-scaling-stroke" d="
  M 132.00 196.46
  Q 142.44 198.77 150.39 205.08
  Q 158.07 211.19 162.52 220.59
  Q 172.19 241.02 158.55 262.44"
/>
<path stroke="#879070" vector-effect="non-scaling-stroke" d="
  M 158.55 262.44
  Q 154.73 267.48 149.24 271.87
  A 0.52 0.52 -45.9 0 0 149.25 272.69
  Q 170.79 288.95 198.10 292.26"
/>
<path stroke="#949b79" vector-effect="non-scaling-stroke" d="
  M 198.10 292.26
  Q 203.91 293.14 215.50 293.25
  Q 243.23 293.52 250.00 293.00
  Q 280.22 290.66 304.33 272.87
  A 0.75 0.74 45.8 0 0 304.34 271.68
  Q 297.97 266.77 293.83 260.23
  Q 289.76 253.80 288.21 246.07
  Q 286.07 235.44 289.37 225.34
  Q 292.52 215.69 299.65 208.38
  Q 308.72 199.08 322.25 196.50
  Q 333.08 194.44 344.02 198.09
  A 0.46 0.45 14.9 0 0 344.61 197.76
  Q 345.00 195.92 345.00 193.00
  Q 345.00 171.00 345.00 149.00
  Q 344.99 136.17 342.17 123.67
  A 0.83 0.82 1.3 0 0 341.58 123.06
  Q 302.07 112.91 281.22 77.44
  A 1.04 1.03 -39.0 0 0 279.56 77.27
  Q 277.53 79.52 275.43 81.35
  Q 272.74 83.71 270.44 84.11
  Q 266.86 84.74 263.60 82.15"
/>
<path stroke="#949321" vector-effect="non-scaling-stroke" d="
  M 263.60 82.15
  Q 263.82 81.66 263.41 81.23
  Q 262.98 80.77 262.88 80.54
  Q 260.43 75.09 264.94 70.69
  Q 281.84 54.18 298.05 35.75
  A 0.56 0.55 34.6 0 0 297.89 34.90
  Q 280.23 25.40 260.53 20.14
  Q 230.14 12.03 198.95 17.09"
/>
<path stroke="#ffcd5b" vector-effect="non-scaling-stroke" d="
  M 263.60 82.15
  Q 256.40 89.11 248.50 94.79"
/>
<path stroke="#f2bb02" vector-effect="non-scaling-stroke" d="
  M 123.04 89.50
  Q 124.08 82.39 128.44 75.44
  Q 137.53 60.94 148.79 50.29
  Q 169.50 30.70 195.64 19.35
  Q 195.70 19.33 197.04 18.95
  Q 198.33 18.58 198.95 17.09"
/>
<path stroke="#f2caaa" vector-effect="non-scaling-stroke" d="
  M 198.10 292.26
  Q 174.98 281.67 158.55 262.44"
/>
<path stroke="#f2caaa" vector-effect="non-scaling-stroke" d="
  M 132.00 196.46
  Q 131.73 152.27 132.25 140.25
  Q 133.11 120.24 143.02 99.56"
/>
<path stroke="#949321" vector-effect="non-scaling-stroke" d="
  M 295.30 61.06
  Q 293.56 62.96 291.84 64.87
  A 0.73 0.73 51.9 0 0 291.74 65.70
  Q 297.41 76.32 305.61 85.15
  Q 324.65 105.65 353.18 109.85
  A 0.50 0.50 89.6 0 0 353.75 109.27
  Q 347.14 67.07 312.16 43.28
  A 0.58 0.57 -51.5 0 0 311.41 43.37
  Q 303.40 52.26 295.30 61.06"
/>
<path stroke="#949b79" vector-effect="non-scaling-stroke" d="
  M 80.93 208.07
  Q 86.59 212.71 94.90 212.19
  A 0.48 0.47 84.4 0 0 95.34 211.65
  Q 93.37 197.44 93.67 183.75
  Q 93.98 169.65 93.46 155.57
  A 0.50 0.49 87.2 0 0 92.94 155.09
  Q 80.02 155.81 75.84 166.16
  Q 74.22 170.19 74.20 178.55
  Q 74.19 185.80 74.37 193.05
  Q 74.51 198.45 75.73 201.26
  Q 77.45 205.21 80.93 208.07"
/>
<path stroke="#949b79" vector-effect="non-scaling-stroke" d="
  M 359.94 196.44
  Q 359.92 200.61 358.38 211.70
  A 0.45 0.45 5.2 0 0 358.81 212.21
  Q 373.41 212.62 377.97 200.99
  Q 379.53 197.02 379.55 189.31
  Q 379.57 181.87 379.38 174.42
  Q 379.24 169.00 377.81 165.83
  Q 373.33 155.91 360.99 154.98
  A 0.92 0.92 2.0 0 0 360.00 155.90
  Q 360.05 175.97 359.94 196.44"
/>
<path stroke="#948d65" vector-effect="non-scaling-stroke" d="
  M 135.39 213.37
  Q 124.43 208.03 111.77 213.61
  A 0.61 0.61 71.9 0 0 111.42 214.30
  Q 117.58 241.36 136.72 261.33
  A 0.65 0.64 -35.9 0 0 137.50 261.45
  Q 148.84 254.99 151.00 242.75
  Q 152.76 232.82 148.04 224.87
  Q 143.58 217.36 135.39 213.37"
/>
<path stroke="#948d65" vector-effect="non-scaling-stroke" d="
  M 312.44 258.81
  Q 314.62 260.63 316.30 261.52
  A 0.68 0.66 -53.4 0 0 317.10 261.39
  Q 336.01 241.35 342.51 214.13
  A 0.57 0.56 17.6 0 0 342.16 213.47
  Q 326.55 207.23 314.53 215.53
  Q 307.15 220.62 304.21 228.30
  Q 301.11 236.40 303.73 245.68
  Q 305.91 253.39 312.44 258.81"
/>
<path stroke="#949b79" vector-effect="non-scaling-stroke" d="
  M 391.44 281.06
  Q 403.37 291.55 417.36 285.18
  Q 420.83 283.59 424.18 280.60
  Q 426.62 278.42 430.19 274.94
  Q 437.79 267.52 445.09 259.81
  A 1.02 0.84 -33.8 0 0 445.35 258.94
  Q 444.94 257.32 442.90 256.16
  A 0.67 0.67 -53.3 0 0 442.09 256.28
  Q 435.40 263.13 428.81 269.36
  Q 428.73 269.43 427.39 270.83
  Q 424.75 273.55 421.50 273.25
  Q 417.36 272.87 415.02 269.42
  Q 413.31 266.90 413.37 264.30
  Q 413.43 261.36 415.80 259.05
  Q 424.78 250.28 432.66 242.01
  A 1.68 1.68 -39.2 0 0 432.87 239.97
  Q 431.00 236.99 429.61 238.37
  Q 422.19 245.70 414.80 253.08
  Q 410.91 256.96 408.70 257.68
  Q 404.30 259.11 400.51 254.75
  Q 395.58 249.08 400.56 244.06
  Q 407.73 236.84 414.83 229.55
  A 0.93 0.83 -31.8 0 0 415.08 228.70
  Q 414.53 226.61 412.47 225.89
  A 0.85 0.76 -55.9 0 0 411.64 226.10
  Q 403.47 234.07 395.43 242.18
  Q 392.97 244.67 389.82 244.77
  Q 386.96 244.86 384.71 242.98
  Q 382.44 241.08 381.79 237.96
  A 1.94 1.93 81.6 0 0 379.73 236.42
  Q 376.43 236.69 375.79 238.44
  Q 375.45 239.37 376.34 241.99
  Q 379.54 251.45 382.66 260.94
  Q 383.31 262.92 384.14 267.70
  Q 385.55 275.88 391.44 281.06"
/>
<path stroke="#949b79" vector-effect="non-scaling-stroke" d="
  M 207.89 312.12
  Q 217.81 320.24 230.73 318.62
  Q 242.11 317.18 249.57 308.56
  Q 250.00 308.06 249.34 308.06
  L 204.66 308.24
  Q 203.93 308.25 204.41 308.79
  Q 206.04 310.60 207.89 312.12"
/>
<path stroke="#599543" vector-effect="non-scaling-stroke" d="
  M 60.15 495.78
  Q 73.46 491.80 77.92 478.47
  Q 80.30 471.38 78.25 463.75
  Q 73.29 445.28 70.50 435.05
  Q 66.40 420.06 64.81 417.19
  Q 59.92 408.45 49.25 404.96"
/>
<path stroke="#528b40" vector-effect="non-scaling-stroke" d="
  M 49.25 404.96
  Q 44.39 403.26 38.75 404.00
  Q 29.96 405.15 23.94 410.43
  Q 18.11 415.56 16.15 422.90
  Q 14.24 430.06 16.44 438.31
  Q 21.56 457.52 26.97 476.64
  Q 31.91 494.06 49.50 496.75
  Q 54.30 497.48 60.15 495.78"
/>
<path stroke="#82bf44" vector-effect="non-scaling-stroke" d="
  M 49.25 404.96
  Q 33.99 420.86 40.17 441.60
  Q 42.40 449.07 42.41 449.11
  Q 49.36 476.15 51.50 482.25
  Q 53.81 488.82 60.15 495.78"
/>
<path stroke="#599543" vector-effect="non-scaling-stroke" d="
  M 406.74 495.70
  Q 420.35 491.67 424.50 478.25
  Q 427.71 467.86 435.16 439.17
  Q 436.80 432.85 436.56 428.66
  Q 435.56 411.27 418.00 404.96"
/>
<path stroke="#528b40" vector-effect="non-scaling-stroke" d="
  M 418.00 404.96
  Q 407.08 401.71 397.50 407.00
  Q 389.78 411.27 386.18 418.76
  Q 385.34 420.51 381.63 433.84
  Q 377.53 448.60 373.53 463.39
  Q 370.85 473.29 375.31 482.19
  Q 380.97 493.46 393.48 496.34
  Q 399.96 497.83 406.74 495.70"
/>
<path stroke="#82bf44" vector-effect="non-scaling-stroke" d="
  M 418.00 404.96
  Q 410.75 412.30 408.04 422.26
  Q 403.63 438.47 399.25 454.68
  Q 396.13 466.20 396.25 471.56
  Q 396.54 485.10 406.74 495.70"
/>
<path stroke="#7fa551" vector-effect="non-scaling-stroke" d="
  M 202.45 444.31
  Q 186.71 440.01 172.31 430.44
  Q 166.43 426.52 162.16 430.92
  Q 160.58 432.54 160.12 434.57
  Q 159.60 436.87 160.45 438.93
  Q 161.28 440.96 164.53 443.14
  Q 186.99 458.22 214.17 462.02
  Q 215.12 462.16 215.90 462.73
  Q 221.42 466.80 226.89 468.92
  Q 239.11 473.65 251.48 477.95
  Q 257.22 479.94 260.76 479.67
  Q 269.69 479.00 274.09 470.14
  Q 276.06 466.17 276.54 461.31
  A 1.48 1.47 78.9 0 1 277.31 460.16
  Q 285.69 455.65 287.66 447.29
  Q 289.16 440.96 286.20 435.33
  A 0.82 0.81 50.4 0 1 286.28 434.43
  Q 289.01 430.94 290.30 427.04
  Q 291.67 422.93 291.10 418.86
  Q 290.36 413.61 286.72 409.97
  Q 284.29 407.54 278.53 405.20
  Q 273.54 403.18 268.38 401.46
  A 0.66 0.65 -75.3 0 1 267.94 400.70
  Q 269.87 390.87 263.13 383.87
  Q 254.25 374.65 243.82 378.79
  Q 240.27 380.19 235.10 384.98
  Q 227.98 391.57 220.86 398.16
  A 0.96 0.95 28.9 0 1 220.01 398.40
  Q 193.68 392.89 182.15 368.68
  Q 177.76 359.48 177.25 347.25
  Q 177.12 344.19 174.89 342.12
  Q 172.90 340.25 170.02 340.13
  Q 166.12 339.96 163.93 342.97
  Q 162.42 345.05 162.45 348.88
  Q 162.53 360.30 166.80 370.98
  Q 178.26 399.64 207.06 410.51
  A 0.39 0.38 -64.2 0 1 207.25 411.07
  Q 197.83 426.96 202.80 443.96
  Q 202.94 444.44 202.45 444.31"
/>
<path stroke="#7fa551" vector-effect="non-scaling-stroke" d="
  M 233.30 348.99
  A 7.37 7.37 0.0 0 0 225.93 341.62
  A 7.37 7.37 0.0 0 0 218.56 348.99
  A 7.37 7.37 0.0 0 0 225.93 356.36
  A 7.37 7.37 0.0 0 0 233.30 348.99"
/>
<path stroke="#7fa551" vector-effect="non-scaling-stroke" d="
  M 233.28 373.99
  A 7.37 7.37 0.0 0 0 225.91 366.62
  A 7.37 7.37 0.0 0 0 218.54 373.99
  A 7.37 7.37 0.0 0 0 225.91 381.36
  A 7.37 7.37 0.0 0 0 233.28 373.99"
/>
<path stroke="#949b79" vector-effect="non-scaling-stroke" d="
  M 257.43 464.36
  Q 260.73 465.88 261.35 461.57
  A 1.19 1.18 14.6 0 0 260.60 460.30
  Q 251.70 456.86 243.03 453.68
  Q 234.85 450.68 236.96 443.58
  Q 238.05 439.88 240.67 438.21
  Q 243.78 436.22 247.94 437.81
  Q 262.29 443.30 270.53 446.09
  A 1.17 1.01 36.6 0 0 271.44 446.02
  Q 273.44 444.86 272.94 442.43
  A 0.97 0.89 6.0 0 0 272.35 441.76
  Q 261.99 437.90 251.67 433.97
  Q 246.94 432.17 245.52 430.47
  Q 242.91 427.34 244.77 422.51
  Q 246.74 417.37 251.21 417.09
  Q 253.32 416.96 258.46 418.89
  Q 266.23 421.81 273.94 424.64
  A 0.99 0.99 26.5 0 0 275.12 424.25
  Q 277.54 420.50 274.43 419.58
  Q 273.32 419.26 273.21 419.22
  Q 265.74 416.45 258.31 413.60
  Q 258.16 413.54 255.15 412.57
  Q 251.95 411.55 250.31 409.44
  Q 247.41 405.69 249.51 401.71
  Q 249.65 401.45 252.28 398.54
  Q 255.10 395.41 250.62 392.86
  A 2.03 2.03 -52.1 0 0 248.22 393.16
  Q 239.20 401.84 230.15 409.89
  Q 228.00 411.80 225.70 413.50
  Q 219.10 418.39 216.99 425.66
  Q 215.01 432.48 217.43 439.78
  Q 221.01 450.53 232.50 455.00
  Q 236.60 456.60 255.37 463.42
  Q 255.46 463.46 257.43 464.36"
/>
</g>
<path fill="#29603f" d="
  M 219.06 0.00
  L 226.31 0.00
  Q 239.31 0.73 244.25 1.50
  Q 281.53 7.32 313.60 26.37
  Q 322.97 31.94 329.97 37.79
  Q 362.39 64.89 368.58 107.64
  Q 369.61 114.74 368.29 118.28
  Q 366.07 124.21 358.81 125.38
  A 0.78 0.77 -8.4 0 0 358.16 126.24
  L 359.87 139.56
  A 0.57 0.56 86.6 0 0 360.43 140.06
  Q 375.96 140.03 386.18 151.56
  Q 393.43 159.73 394.25 169.25
  Q 394.88 176.59 394.53 190.04
  Q 394.25 200.58 392.35 205.71
  Q 389.07 214.58 381.10 220.75
  Q 380.43 221.27 381.28 221.34
  Q 385.99 221.71 390.59 225.08
  A 0.60 0.60 40.5 0 0 391.36 225.02
  Q 395.31 221.06 399.31 217.06
  Q 404.13 212.24 409.35 211.29
  Q 416.78 209.92 422.25 214.28
  Q 424.09 215.75 425.86 217.63
  Q 427.67 219.57 428.67 221.74
  A 1.69 1.68 78.8 0 0 430.11 222.71
  Q 435.91 222.98 440.03 225.76
  Q 443.93 228.39 446.28 232.39
  Q 448.61 236.36 448.56 241.59
  A 1.08 1.08 -76.7 0 0 449.17 242.58
  Q 456.44 246.05 459.32 253.16
  Q 460.89 257.03 460.46 261.03
  Q 459.98 265.52 457.44 268.69
  Q 453.38 273.74 433.44 292.43
  Q 429.52 296.10 424.68 298.44
  Q 423.72 298.91 423.04 299.73
  Q 391.21 338.50 339.86 344.47
  A 1.20 1.20 87.0 0 0 338.80 345.65
  Q 338.73 350.43 338.74 355.64
  Q 338.74 362.92 338.51 363.84
  Q 337.30 368.66 331.25 369.54
  Q 327.38 369.15 325.38 366.38
  Q 324.18 364.72 323.93 361.86
  Q 323.75 359.81 323.75 357.00
  Q 323.75 348.77 323.75 340.55
  Q 323.75 335.32 325.18 333.25
  Q 327.46 329.94 332.75 329.75
  Q 371.70 328.32 400.14 302.23
  Q 400.54 301.86 400.01 301.75
  Q 382.27 297.98 373.25 281.81
  A 0.64 0.64 56.8 0 0 372.30 281.61
  Q 345.75 301.66 313.00 294.00
  Q 311.23 293.59 305.69 290.73
  A 0.89 0.88 -46.6 0 0 304.82 290.76
  Q 288.26 300.67 269.13 305.34
  A 0.99 0.99 -85.9 0 0 268.44 305.94
  Q 263.94 316.85 254.68 324.15
  Q 244.16 332.43 231.49 333.76
  Q 221.62 334.79 211.81 331.29
  Q 193.62 324.82 185.26 305.89
  A 0.98 0.98 -4.8 0 0 184.58 305.33
  Q 165.96 300.98 149.67 291.01
  A 0.64 0.62 -51.4 0 0 148.89 291.11
  Q 129.95 310.53 128.25 338.50
  Q 126.01 375.28 146.14 404.71
  Q 146.20 404.80 147.59 406.58
  Q 149.52 409.07 149.49 412.01
  Q 149.46 415.46 146.91 417.70
  Q 144.51 419.81 141.22 419.26
  Q 138.83 418.85 136.62 416.43
  Q 132.18 411.60 129.01 405.47
  Q 128.00 403.52 128.00 405.72
  Q 128.00 419.38 128.06 432.50
  Q 128.08 437.41 124.79 439.63
  Q 122.76 440.99 117.93 441.05
  Q 103.41 441.22 88.22 441.19
  A 0.38 0.38 -8.0 0 0 87.85 441.68
  Q 89.46 447.34 90.83 452.58
  Q 90.85 452.67 92.47 458.25
  Q 96.68 472.73 90.93 486.95
  Q 90.39 488.30 91.81 487.99
  Q 93.60 487.59 95.50 487.60
  Q 154.75 487.75 214.00 487.88
  Q 249.25 487.96 284.50 487.79
  Q 322.03 487.61 360.30 487.94
  A 0.65 0.65 -11.2 0 0 360.91 487.04
  Q 356.79 477.32 357.74 467.03
  Q 358.05 463.57 360.60 454.26
  Q 362.33 447.93 363.82 441.54
  A 0.37 0.37 -84.1 0 0 363.45 441.08
  Q 349.97 441.50 336.50 441.13
  Q 330.00 440.95 328.54 440.48
  Q 323.75 438.92 323.75 432.75
  Q 323.75 416.25 323.75 399.75
  Q 323.75 391.77 331.25 390.21
  Q 337.56 391.49 338.66 396.63
  Q 338.75 397.07 338.75 405.38
  Q 338.75 415.16 338.75 425.31
  A 0.94 0.94 0.0 0 0 339.69 426.25
  L 367.48 426.25
  A 1.03 1.02 5.4 0 0 368.49 425.42
  Q 369.51 420.29 371.45 415.34
  Q 373.42 410.31 376.41 406.17
  Q 386.71 391.90 403.85 389.32
  Q 413.00 387.94 421.52 390.30
  Q 430.54 392.81 437.51 398.89
  Q 445.25 405.65 448.97 415.04
  Q 453.78 427.21 450.14 440.97
  Q 445.08 460.09 439.84 479.16
  Q 431.67 508.92 400.69 512.00
  L 396.69 512.00
  Q 385.92 511.02 376.71 505.49
  Q 376.65 505.45 375.03 504.24
  Q 373.05 502.75 369.75 502.75
  Q 225.38 502.75 80.27 502.75
  A 3.64 3.59 -61.9 0 0 78.22 503.39
  Q 67.19 511.06 54.69 512.00
  L 50.94 512.00
  Q 28.21 509.90 17.30 492.09
  Q 14.17 486.96 11.22 476.72
  Q 4.84 454.53 -0.17 431.98
  L 0.00 427.19
  Q 0.95 418.00 4.56 411.31
  Q 14.52 392.87 34.03 389.50
  Q 44.23 387.74 53.82 390.61
  Q 69.95 395.43 78.69 411.31
  Q 81.25 415.96 83.57 425.58
  A 0.64 0.64 83.1 0 0 84.19 426.07
  L 112.12 426.24
  A 0.91 0.89 -90.0 0 0 113.01 425.33
  Q 112.84 384.63 113.16 344.99
  Q 113.26 332.26 114.67 325.11
  Q 119.41 300.98 136.06 282.73
  A 1.05 1.04 41.5 0 0 135.96 281.22
  Q 109.89 259.11 99.73 228.45
  A 1.91 1.90 79.2 0 0 97.82 227.15
  Q 92.08 227.47 87.21 226.78
  Q 82.05 226.04 77.28 223.48
  Q 59.17 213.77 59.25 190.75
  Q 59.29 180.61 59.37 174.78
  Q 59.47 167.94 60.97 163.41
  Q 67.99 142.16 93.31 139.88
  A 0.94 0.93 -0.4 0 0 94.16 139.02
  Q 95.43 123.93 99.70 110.64
  A 0.99 0.98 -76.4 0 0 98.92 109.36
  Q 90.59 108.00 86.95 101.96
  Q 84.57 98.02 84.71 92.15
  Q 84.84 86.89 86.75 82.00
  Q 90.98 71.16 98.51 61.49
  Q 119.03 35.12 148.44 19.20
  Q 181.44 1.33 219.06 0.00
  Z
  M 198.95 17.09
  Q 151.31 26.29 118.21 61.45
  Q 110.52 69.62 104.56 79.11
  Q 100.35 85.82 99.68 92.56
  Q 99.45 94.80 101.70 94.62
  Q 113.57 93.68 123.04 89.50
  Q 140.49 82.76 156.68 73.38
  Q 160.46 71.18 163.50 72.00
  Q 169.70 73.66 169.18 79.98
  Q 169.04 81.74 168.12 83.21
  Q 167.12 84.82 165.81 85.81
  Q 161.17 89.33 158.49 94.52
  Q 157.50 96.44 159.07 97.92
  Q 165.20 103.75 174.05 101.16
  Q 180.08 99.40 185.58 96.35
  Q 197.04 90.00 207.06 81.56
  Q 210.32 78.82 213.93 80.06
  Q 217.14 81.17 218.59 84.04
  Q 220.12 87.06 218.55 90.81
  Q 216.13 96.57 216.06 99.81
  Q 215.99 103.08 219.75 102.00
  Q 229.91 99.09 236.84 94.10
  Q 243.00 89.67 248.50 94.79
  Q 251.84 101.30 246.69 105.44
  Q 241.56 109.55 231.81 113.81
  Q 225.52 116.56 219.44 116.93
  Q 212.85 117.33 208.47 114.70
  Q 203.26 111.57 201.52 104.79
  A 0.32 0.32 -24.1 0 0 201.02 104.60
  Q 191.37 111.21 180.33 114.65
  Q 171.91 117.28 165.95 116.67
  Q 158.57 115.92 151.94 111.31
  Q 145.70 106.97 143.02 99.56
  Q 143.83 97.78 142.58 97.83
  Q 142.14 97.85 141.35 98.21
  Q 129.58 103.65 117.08 107.47
  A 0.95 0.94 -87.1 0 0 116.49 108.01
  Q 110.18 124.28 109.00 141.50
  Q 108.73 145.42 108.70 161.49
  Q 108.66 179.75 109.00 198.01
  A 0.24 0.24 80.0 0 0 109.31 198.23
  Q 120.38 194.53 132.00 196.46
  Q 142.44 198.77 150.39 205.08
  Q 158.07 211.19 162.52 220.59
  Q 172.19 241.02 158.55 262.44
  Q 154.73 267.48 149.24 271.87
  A 0.52 0.52 -45.9 0 0 149.25 272.69
  Q 170.79 288.95 198.10 292.26
  Q 203.91 293.14 215.50 293.25
  Q 243.23 293.52 250.00 293.00
  Q 280.22 290.66 304.33 272.87
  A 0.75 0.74 45.8 0 0 304.34 271.68
  Q 297.97 266.77 293.83 260.23
  Q 289.76 253.80 288.21 246.07
  Q 286.07 235.44 289.37 225.34
  Q 292.52 215.69 299.65 208.38
  Q 308.72 199.08 322.25 196.50
  Q 333.08 194.44 344.02 198.09
  A 0.46 0.45 14.9 0 0 344.61 197.76
  Q 345.00 195.92 345.00 193.00
  Q 345.00 171.00 345.00 149.00
  Q 344.99 136.17 342.17 123.67
  A 0.83 0.82 1.3 0 0 341.58 123.06
  Q 302.07 112.91 281.22 77.44
  A 1.04 1.03 -39.0 0 0 279.56 77.27
  Q 277.53 79.52 275.43 81.35
  Q 272.74 83.71 270.44 84.11
  Q 266.86 84.74 263.60 82.15
  Q 263.82 81.66 263.41 81.23
  Q 262.98 80.77 262.88 80.54
  Q 260.43 75.09 264.94 70.69
  Q 281.84 54.18 298.05 35.75
  A 0.56 0.55 34.6 0 0 297.89 34.90
  Q 280.23 25.40 260.53 20.14
  Q 230.14 12.03 198.95 17.09
  Z
  M 295.30 61.06
  Q 293.56 62.96 291.84 64.87
  A 0.73 0.73 51.9 0 0 291.74 65.70
  Q 297.41 76.32 305.61 85.15
  Q 324.65 105.65 353.18 109.85
  A 0.50 0.50 89.6 0 0 353.75 109.27
  Q 347.14 67.07 312.16 43.28
  A 0.58 0.57 -51.5 0 0 311.41 43.37
  Q 303.40 52.26 295.30 61.06
  Z
  M 80.93 208.07
  Q 86.59 212.71 94.90 212.19
  A 0.48 0.47 84.4 0 0 95.34 211.65
  Q 93.37 197.44 93.67 183.75
  Q 93.98 169.65 93.46 155.57
  A 0.50 0.49 87.2 0 0 92.94 155.09
  Q 80.02 155.81 75.84 166.16
  Q 74.22 170.19 74.20 178.55
  Q 74.19 185.80 74.37 193.05
  Q 74.51 198.45 75.73 201.26
  Q 77.45 205.21 80.93 208.07
  Z
  M 359.94 196.44
  Q 359.92 200.61 358.38 211.70
  A 0.45 0.45 5.2 0 0 358.81 212.21
  Q 373.41 212.62 377.97 200.99
  Q 379.53 197.02 379.55 189.31
  Q 379.57 181.87 379.38 174.42
  Q 379.24 169.00 377.81 165.83
  Q 373.33 155.91 360.99 154.98
  A 0.92 0.92 2.0 0 0 360.00 155.90
  Q 360.05 175.97 359.94 196.44
  Z
  M 135.39 213.37
  Q 124.43 208.03 111.77 213.61
  A 0.61 0.61 71.9 0 0 111.42 214.30
  Q 117.58 241.36 136.72 261.33
  A 0.65 0.64 -35.9 0 0 137.50 261.45
  Q 148.84 254.99 151.00 242.75
  Q 152.76 232.82 148.04 224.87
  Q 143.58 217.36 135.39 213.37
  Z
  M 312.44 258.81
  Q 314.62 260.63 316.30 261.52
  A 0.68 0.66 -53.4 0 0 317.10 261.39
  Q 336.01 241.35 342.51 214.13
  A 0.57 0.56 17.6 0 0 342.16 213.47
  Q 326.55 207.23 314.53 215.53
  Q 307.15 220.62 304.21 228.30
  Q 301.11 236.40 303.73 245.68
  Q 305.91 253.39 312.44 258.81
  Z
  M 391.44 281.06
  Q 403.37 291.55 417.36 285.18
  Q 420.83 283.59 424.18 280.60
  Q 426.62 278.42 430.19 274.94
  Q 437.79 267.52 445.09 259.81
  A 1.02 0.84 -33.8 0 0 445.35 258.94
  Q 444.94 257.32 442.90 256.16
  A 0.67 0.67 -53.3 0 0 442.09 256.28
  Q 435.40 263.13 428.81 269.36
  Q 428.73 269.43 427.39 270.83
  Q 424.75 273.55 421.50 273.25
  Q 417.36 272.87 415.02 269.42
  Q 413.31 266.90 413.37 264.30
  Q 413.43 261.36 415.80 259.05
  Q 424.78 250.28 432.66 242.01
  A 1.68 1.68 -39.2 0 0 432.87 239.97
  Q 431.00 236.99 429.61 238.37
  Q 422.19 245.70 414.80 253.08
  Q 410.91 256.96 408.70 257.68
  Q 404.30 259.11 400.51 254.75
  Q 395.58 249.08 400.56 244.06
  Q 407.73 236.84 414.83 229.55
  A 0.93 0.83 -31.8 0 0 415.08 228.70
  Q 414.53 226.61 412.47 225.89
  A 0.85 0.76 -55.9 0 0 411.64 226.10
  Q 403.47 234.07 395.43 242.18
  Q 392.97 244.67 389.82 244.77
  Q 386.96 244.86 384.71 242.98
  Q 382.44 241.08 381.79 237.96
  A 1.94 1.93 81.6 0 0 379.73 236.42
  Q 376.43 236.69 375.79 238.44
  Q 375.45 239.37 376.34 241.99
  Q 379.54 251.45 382.66 260.94
  Q 383.31 262.92 384.14 267.70
  Q 385.55 275.88 391.44 281.06
  Z
  M 325.55 274.05
  Q 323.11 276.49 319.99 279.34
  Q 319.06 280.18 320.30 280.36
  Q 348.33 284.49 367.82 265.54
  A 0.80 0.79 -31.0 0 0 368.03 264.71
  Q 366.09 258.90 364.20 253.07
  Q 360.79 242.54 360.61 240.87
  Q 359.86 233.85 364.62 227.71
  Q 364.94 227.30 364.45 227.30
  L 355.27 227.26
  A 1.11 1.07 -80.0 0 0 354.25 228.00
  Q 345.17 254.45 325.55 274.05
  Z
  M 207.89 312.12
  Q 217.81 320.24 230.73 318.62
  Q 242.11 317.18 249.57 308.56
  Q 250.00 308.06 249.34 308.06
  L 204.66 308.24
  Q 203.93 308.25 204.41 308.79
  Q 206.04 310.60 207.89 312.12
  Z
  M 60.15 495.78
  Q 73.46 491.80 77.92 478.47
  Q 80.30 471.38 78.25 463.75
  Q 73.29 445.28 70.50 435.05
  Q 66.40 420.06 64.81 417.19
  Q 59.92 408.45 49.25 404.96
  Q 44.39 403.26 38.75 404.00
  Q 29.96 405.15 23.94 410.43
  Q 18.11 415.56 16.15 422.90
  Q 14.24 430.06 16.44 438.31
  Q 21.56 457.52 26.97 476.64
  Q 31.91 494.06 49.50 496.75
  Q 54.30 497.48 60.15 495.78
  Z
  M 406.74 495.70
  Q 420.35 491.67 424.50 478.25
  Q 427.71 467.86 435.16 439.17
  Q 436.80 432.85 436.56 428.66
  Q 435.56 411.27 418.00 404.96
  Q 407.08 401.71 397.50 407.00
  Q 389.78 411.27 386.18 418.76
  Q 385.34 420.51 381.63 433.84
  Q 377.53 448.60 373.53 463.39
  Q 370.85 473.29 375.31 482.19
  Q 380.97 493.46 393.48 496.34
  Q 399.96 497.83 406.74 495.70
  Z"
/>
<path fill="#ffc502" d="
  M 263.60 82.15
  Q 256.40 89.11 248.50 94.79
  Q 243.00 89.67 236.84 94.10
  Q 229.91 99.09 219.75 102.00
  Q 215.99 103.08 216.06 99.81
  Q 216.13 96.57 218.55 90.81
  Q 220.12 87.06 218.59 84.04
  Q 217.14 81.17 213.93 80.06
  Q 210.32 78.82 207.06 81.56
  Q 197.04 90.00 185.58 96.35
  Q 180.08 99.40 174.05 101.16
  Q 165.20 103.75 159.07 97.92
  Q 157.50 96.44 158.49 94.52
  Q 161.17 89.33 165.81 85.81
  Q 167.12 84.82 168.12 83.21
  Q 169.04 81.74 169.18 79.98
  Q 169.70 73.66 163.50 72.00
  Q 160.46 71.18 156.68 73.38
  Q 140.49 82.76 123.04 89.50
  Q 124.08 82.39 128.44 75.44
  Q 137.53 60.94 148.79 50.29
  Q 169.50 30.70 195.64 19.35
  Q 195.70 19.33 197.04 18.95
  Q 198.33 18.58 198.95 17.09
  Q 230.14 12.03 260.53 20.14
  Q 280.23 25.40 297.89 34.90
  A 0.56 0.55 34.6 0 1 298.05 35.75
  Q 281.84 54.18 264.94 70.69
  Q 260.43 75.09 262.88 80.54
  Q 262.98 80.77 263.41 81.23
  Q 263.82 81.66 263.60 82.15
  Z"
/>
<path fill="#e5b102" d="
  M 198.95 17.09
  Q 198.33 18.58 197.04 18.95
  Q 195.70 19.33 195.64 19.35
  Q 169.50 30.70 148.79 50.29
  Q 137.53 60.94 128.44 75.44
  Q 124.08 82.39 123.04 89.50
  Q 113.57 93.68 101.70 94.62
  Q 99.45 94.80 99.68 92.56
  Q 100.35 85.82 104.56 79.11
  Q 110.52 69.62 118.21 61.45
  Q 151.31 26.29 198.95 17.09
  Z"
/>
<path fill="#ffc502" d="
  M 295.30 61.06
  Q 303.40 52.26 311.41 43.37
  A 0.58 0.57 -51.5 0 1 312.16 43.28
  Q 347.14 67.07 353.75 109.27
  A 0.50 0.50 89.6 0 1 353.18 109.85
  Q 324.65 105.65 305.61 85.15
  Q 297.41 76.32 291.74 65.70
  A 0.73 0.73 51.9 0 1 291.84 64.87
  Q 293.56 62.96 295.30 61.06
  Z"
/>
<path fill="#ffd5b3" d="
  M 198.10 292.26
  Q 174.98 281.67 158.55 262.44
  Q 172.19 241.02 162.52 220.59
  Q 158.07 211.19 150.39 205.08
  Q 142.44 198.77 132.00 196.46
  Q 131.73 152.27 132.25 140.25
  Q 133.11 120.24 143.02 99.56
  Q 145.70 106.97 151.94 111.31
  Q 158.57 115.92 165.95 116.67
  Q 171.91 117.28 180.33 114.65
  Q 191.37 111.21 201.02 104.60
  A 0.32 0.32 -24.1 0 1 201.52 104.79
  Q 203.26 111.57 208.47 114.70
  Q 212.85 117.33 219.44 116.93
  Q 225.52 116.56 231.81 113.81
  Q 241.56 109.55 246.69 105.44
  Q 251.84 101.30 248.50 94.79
  Q 256.40 89.11 263.60 82.15
  Q 266.86 84.74 270.44 84.11
  Q 272.74 83.71 275.43 81.35
  Q 277.53 79.52 279.56 77.27
  A 1.04 1.03 -39.0 0 1 281.22 77.44
  Q 302.07 112.91 341.58 123.06
  A 0.83 0.82 1.3 0 1 342.17 123.67
  Q 344.99 136.17 345.00 149.00
  Q 345.00 171.00 345.00 193.00
  Q 345.00 195.92 344.61 197.76
  A 0.46 0.45 14.9 0 1 344.02 198.09
  Q 333.08 194.44 322.25 196.50
  Q 308.72 199.08 299.65 208.38
  Q 292.52 215.69 289.37 225.34
  Q 286.07 235.44 288.21 246.07
  Q 289.76 253.80 293.83 260.23
  Q 297.97 266.77 304.34 271.68
  A 0.75 0.74 45.8 0 1 304.33 272.87
  Q 280.22 290.66 250.00 293.00
  Q 243.23 293.52 215.50 293.25
  Q 203.91 293.14 198.10 292.26
  Z"
/>
<path fill="#e5bfa1" d="
  M 143.02 99.56
  Q 133.11 120.24 132.25 140.25
  Q 131.73 152.27 132.00 196.46
  Q 120.38 194.53 109.31 198.23
  A 0.24 0.24 80.0 0 1 109.00 198.01
  Q 108.66 179.75 108.70 161.49
  Q 108.73 145.42 109.00 141.50
  Q 110.18 124.28 116.49 108.01
  A 0.95 0.94 -87.1 0 1 117.08 107.47
  Q 129.58 103.65 141.35 98.21
  Q 142.14 97.85 142.58 97.83
  Q 143.83 97.78 143.02 99.56
  Z"
/>
<path fill="#ffd5b3" d="
  M 80.93 208.07
  Q 77.45 205.21 75.73 201.26
  Q 74.51 198.45 74.37 193.05
  Q 74.19 185.80 74.20 178.55
  Q 74.22 170.19 75.84 166.16
  Q 80.02 155.81 92.94 155.09
  A 0.50 0.49 87.2 0 1 93.46 155.57
  Q 93.98 169.65 93.67 183.75
  Q 93.37 197.44 95.34 211.65
  A 0.48 0.47 84.4 0 1 94.90 212.19
  Q 86.59 212.71 80.93 208.07
  Z"
/>
<path fill="#ffd5b3" d="
  M 359.94 196.44
  Q 360.05 175.97 360.00 155.90
  A 0.92 0.92 2.0 0 1 360.99 154.98
  Q 373.33 155.91 377.81 165.83
  Q 379.24 169.00 379.38 174.42
  Q 379.57 181.87 379.55 189.31
  Q 379.53 197.02 377.97 200.99
  Q 373.41 212.62 358.81 212.21
  A 0.45 0.45 5.2 0 1 358.38 211.70
  Q 359.92 200.61 359.94 196.44
  Z"
/>
<path fill="#ffb98a" d="
  M 148.04 224.87
  Q 152.76 232.82 151.00 242.75
  Q 148.84 254.99 137.50 261.45
  A 0.65 0.64 -35.9 0 1 136.72 261.33
  Q 117.58 241.36 111.42 214.30
  A 0.61 0.61 71.9 0 1 111.77 213.61
  Q 124.43 208.03 135.39 213.37
  Q 143.58 217.36 148.04 224.87
  Z"
/>
<path fill="#ffb98a" d="
  M 312.44 258.81
  Q 305.91 253.39 303.73 245.68
  Q 301.11 236.40 304.21 228.30
  Q 307.15 220.62 314.53 215.53
  Q 326.55 207.23 342.16 213.47
  A 0.57 0.56 17.6 0 1 342.51 214.13
  Q 336.01 241.35 317.10 261.39
  A 0.68 0.66 -53.4 0 1 316.30 261.52
  Q 314.62 260.63 312.44 258.81
  Z"
/>
<path fill="#ffd5b3" d="
  M 391.44 281.06
  Q 385.55 275.88 384.14 267.70
  Q 383.31 262.92 382.66 260.94
  Q 379.54 251.45 376.34 241.99
  Q 375.45 239.37 375.79 238.44
  Q 376.43 236.69 379.73 236.42
  A 1.94 1.93 81.6 0 1 381.79 237.96
  Q 382.44 241.08 384.71 242.98
  Q 386.96 244.86 389.82 244.77
  Q 392.97 244.67 395.43 242.18
  Q 403.47 234.07 411.64 226.10
  A 0.85 0.76 -55.9 0 1 412.47 225.89
  Q 414.53 226.61 415.08 228.70
  A 0.93 0.83 -31.8 0 1 414.83 229.55
  Q 407.73 236.84 400.56 244.06
  Q 395.58 249.08 400.51 254.75
  Q 404.30 259.11 408.70 257.68
  Q 410.91 256.96 414.80 253.08
  Q 422.19 245.70 429.61 238.37
  Q 431.00 236.99 432.87 239.97
  A 1.68 1.68 -39.2 0 1 432.66 242.01
  Q 424.78 250.28 415.80 259.05
  Q 413.43 261.36 413.37 264.30
  Q 413.31 266.90 415.02 269.42
  Q 417.36 272.87 421.50 273.25
  Q 424.75 273.55 427.39 270.83
  Q 428.73 269.43 428.81 269.36
  Q 435.40 263.13 442.09 256.28
  A 0.67 0.67 -53.3 0 1 442.90 256.16
  Q 444.94 257.32 445.35 258.94
  A 1.02 0.84 -33.8 0 1 445.09 259.81
  Q 437.79 267.52 430.19 274.94
  Q 426.62 278.42 424.18 280.60
  Q 420.83 283.59 417.36 285.18
  Q 403.37 291.55 391.44 281.06
  Z"
/>
<path fill="#e5bfa1" d="
  M 158.55 262.44
  Q 174.98 281.67 198.10 292.26
  Q 170.79 288.95 149.25 272.69
  A 0.52 0.52 -45.9 0 1 149.24 271.87
  Q 154.73 267.48 158.55 262.44
  Z"
/>
<path fill="#d5e962" d="
  M 331.25 369.54
  L 331.25 390.21
  Q 323.75 391.77 323.75 399.75
  Q 323.75 416.25 323.75 432.75
  Q 323.75 438.92 328.54 440.48
  Q 330.00 440.95 336.50 441.13
  Q 349.97 441.50 363.45 441.08
  A 0.37 0.37 -84.1 0 1 363.82 441.54
  Q 362.33 447.93 360.60 454.26
  Q 358.05 463.57 357.74 467.03
  Q 356.79 477.32 360.91 487.04
  A 0.65 0.65 -11.2 0 1 360.30 487.94
  Q 322.03 487.61 284.50 487.79
  Q 249.25 487.96 214.00 487.88
  Q 154.75 487.75 95.50 487.60
  Q 93.60 487.59 91.81 487.99
  Q 90.39 488.30 90.93 486.95
  Q 96.68 472.73 92.47 458.25
  Q 90.85 452.67 90.83 452.58
  Q 89.46 447.34 87.85 441.68
  A 0.38 0.38 -8.0 0 1 88.22 441.19
  Q 103.41 441.22 117.93 441.05
  Q 122.76 440.99 124.79 439.63
  Q 128.08 437.41 128.06 432.50
  Q 128.00 419.38 128.00 405.72
  Q 128.00 403.52 129.01 405.47
  Q 132.18 411.60 136.62 416.43
  Q 138.83 418.85 141.22 419.26
  Q 144.51 419.81 146.91 417.70
  Q 149.46 415.46 149.49 412.01
  Q 149.52 409.07 147.59 406.58
  Q 146.20 404.80 146.14 404.71
  Q 126.01 375.28 128.25 338.50
  Q 129.95 310.53 148.89 291.11
  A 0.64 0.62 -51.4 0 1 149.67 291.01
  Q 165.96 300.98 184.58 305.33
  A 0.98 0.98 -4.1 0 1 185.26 305.89
  Q 193.62 324.82 211.81 331.29
  Q 221.62 334.79 231.49 333.76
  Q 244.16 332.43 254.68 324.15
  Q 263.94 316.85 268.44 305.94
  A 0.99 0.99 -85.9 0 1 269.13 305.34
  Q 288.26 300.67 304.82 290.76
  A 0.89 0.88 -46.6 0 1 305.69 290.73
  Q 311.23 293.59 313.00 294.00
  Q 345.75 301.66 372.30 281.61
  A 0.64 0.64 56.8 0 1 373.25 281.81
  Q 382.27 297.98 400.01 301.75
  Q 400.54 301.86 400.14 302.23
  Q 371.70 328.32 332.75 329.75
  Q 327.46 329.94 325.18 333.25
  Q 323.75 335.32 323.75 340.55
  Q 323.75 348.77 323.75 357.00
  Q 323.75 359.81 323.93 361.86
  Q 324.18 364.72 325.38 366.38
  Q 327.38 369.15 331.25 369.54
  Z
  M 202.45 444.31
  Q 186.71 440.01 172.31 430.44
  Q 166.43 426.52 162.16 430.92
  Q 160.58 432.54 160.12 434.57
  Q 159.60 436.87 160.45 438.93
  Q 161.28 440.96 164.53 443.14
  Q 186.99 458.22 214.17 462.02
  Q 215.12 462.16 215.90 462.73
  Q 221.42 466.80 226.89 468.92
  Q 239.11 473.65 251.48 477.95
  Q 257.22 479.94 260.76 479.67
  Q 269.69 479.00 274.09 470.14
  Q 276.06 466.17 276.54 461.31
  A 1.48 1.47 78.9 0 1 277.31 460.16
  Q 285.69 455.65 287.66 447.29
  Q 289.16 440.96 286.20 435.33
  A 0.82 0.81 50.4 0 1 286.28 434.43
  Q 289.01 430.94 290.30 427.04
  Q 291.67 422.93 291.10 418.86
  Q 290.36 413.61 286.72 409.97
  Q 284.29 407.54 278.53 405.20
  Q 273.54 403.18 268.38 401.46
  A 0.66 0.65 -75.3 0 1 267.94 400.70
  Q 269.87 390.87 263.13 383.87
  Q 254.25 374.65 243.82 378.79
  Q 240.27 380.19 235.10 384.98
  Q 227.98 391.57 220.86 398.16
  A 0.96 0.95 28.9 0 1 220.01 398.40
  Q 193.68 392.89 182.15 368.68
  Q 177.76 359.48 177.25 347.25
  Q 177.12 344.19 174.89 342.12
  Q 172.90 340.25 170.02 340.13
  Q 166.12 339.96 163.93 342.97
  Q 162.42 345.05 162.45 348.88
  Q 162.53 360.30 166.80 370.98
  Q 178.26 399.64 207.06 410.51
  A 0.39 0.38 -64.2 0 1 207.25 411.07
  Q 197.83 426.96 202.80 443.96
  Q 202.94 444.44 202.45 444.31
  Z
  M 233.30 348.99
  A 7.37 7.37 0.0 0 0 225.93 341.62
  A 7.37 7.37 0.0 0 0 218.56 348.99
  A 7.37 7.37 0.0 0 0 225.93 356.36
  A 7.37 7.37 0.0 0 0 233.30 348.99
  Z
  M 233.28 373.99
  A 7.37 7.37 0.0 0 0 225.91 366.62
  A 7.37 7.37 0.0 0 0 218.54 373.99
  A 7.37 7.37 0.0 0 0 225.91 381.36
  A 7.37 7.37 0.0 0 0 233.28 373.99
  Z"
/>
<path fill="#ffd5b3" d="
  M 207.89 312.12
  Q 206.04 310.60 204.41 308.79
  Q 203.93 308.25 204.66 308.24
  L 249.34 308.06
  Q 250.00 308.06 249.57 308.56
  Q 242.11 317.18 230.73 318.62
  Q 217.81 320.24 207.89 312.12
  Z"
/>
<path fill="#29603f" d="
  M 202.80 443.96
  Q 197.83 426.96 207.25 411.07
  A 0.39 0.38 -64.2 0 0 207.06 410.51
  Q 178.26 399.64 166.80 370.98
  Q 162.53 360.30 162.45 348.88
  Q 162.42 345.05 163.93 342.97
  Q 166.12 339.96 170.02 340.13
  Q 172.90 340.25 174.89 342.12
  Q 177.12 344.19 177.25 347.25
  Q 177.76 359.48 182.15 368.68
  Q 193.68 392.89 220.01 398.40
  A 0.96 0.95 28.9 0 0 220.86 398.16
  Q 227.98 391.57 235.10 384.98
  Q 240.27 380.19 243.82 378.79
  Q 254.25 374.65 263.13 383.87
  Q 269.87 390.87 267.94 400.70
  A 0.66 0.65 -75.3 0 0 268.38 401.46
  Q 273.54 403.18 278.53 405.20
  Q 284.29 407.54 286.72 409.97
  Q 290.36 413.61 291.10 418.86
  Q 291.67 422.93 290.30 427.04
  Q 289.01 430.94 286.28 434.43
  A 0.82 0.81 50.4 0 0 286.20 435.33
  Q 289.16 440.96 287.66 447.29
  Q 285.69 455.65 277.31 460.16
  A 1.48 1.47 78.9 0 0 276.54 461.31
  Q 276.06 466.17 274.09 470.14
  Q 269.69 479.00 260.76 479.67
  Q 257.22 479.94 251.48 477.95
  Q 239.11 473.65 226.89 468.92
  Q 221.42 466.80 215.90 462.73
  Q 215.12 462.16 214.17 462.02
  Q 186.99 458.22 164.53 443.14
  Q 161.28 440.96 160.45 438.93
  Q 159.60 436.87 160.12 434.57
  Q 160.58 432.54 162.16 430.92
  Q 166.43 426.52 172.31 430.44
  Q 186.71 440.01 202.45 444.31
  Q 202.94 444.44 202.80 443.96
  Z
  M 257.43 464.36
  Q 260.73 465.88 261.35 461.57
  A 1.19 1.18 14.6 0 0 260.60 460.30
  Q 251.70 456.86 243.03 453.68
  Q 234.85 450.68 236.96 443.58
  Q 238.05 439.88 240.67 438.21
  Q 243.78 436.22 247.94 437.81
  Q 262.29 443.30 270.53 446.09
  A 1.17 1.01 36.6 0 0 271.44 446.02
  Q 273.44 444.86 272.94 442.43
  A 0.97 0.89 6.0 0 0 272.35 441.76
  Q 261.99 437.90 251.67 433.97
  Q 246.94 432.17 245.52 430.47
  Q 242.91 427.34 244.77 422.51
  Q 246.74 417.37 251.21 417.09
  Q 253.32 416.96 258.46 418.89
  Q 266.23 421.81 273.94 424.64
  A 0.99 0.99 26.5 0 0 275.12 424.25
  Q 277.54 420.50 274.43 419.58
  Q 273.32 419.26 273.21 419.22
  Q 265.74 416.45 258.31 413.60
  Q 258.16 413.54 255.15 412.57
  Q 251.95 411.55 250.31 409.44
  Q 247.41 405.69 249.51 401.71
  Q 249.65 401.45 252.28 398.54
  Q 255.10 395.41 250.62 392.86
  A 2.03 2.03 -52.1 0 0 248.22 393.16
  Q 239.20 401.84 230.15 409.89
  Q 228.00 411.80 225.70 413.50
  Q 219.10 418.39 216.99 425.66
  Q 215.01 432.48 217.43 439.78
  Q 221.01 450.53 232.50 455.00
  Q 236.60 456.60 255.37 463.42
  Q 255.46 463.46 257.43 464.36
  Z"
/>
<circle fill="#29603f" cx="225.93" cy="348.99" r="7.37"/>
<circle fill="#29603f" cx="225.91" cy="373.99" r="7.37"/>
<path fill="#ffd5b3" d="
  M 255.37 463.42
  Q 236.60 456.60 232.50 455.00
  Q 221.01 450.53 217.43 439.78
  Q 215.01 432.48 216.99 425.66
  Q 219.10 418.39 225.70 413.50
  Q 228.00 411.80 230.15 409.89
  Q 239.20 401.84 248.22 393.16
  A 2.03 2.03 -52.1 0 1 250.62 392.86
  Q 255.10 395.41 252.28 398.54
  Q 249.65 401.45 249.51 401.71
  Q 247.41 405.69 250.31 409.44
  Q 251.95 411.55 255.15 412.57
  Q 258.16 413.54 258.31 413.60
  Q 265.74 416.45 273.21 419.22
  Q 273.32 419.26 274.43 419.58
  Q 277.54 420.50 275.12 424.25
  A 0.99 0.99 26.5 0 1 273.94 424.64
  Q 266.23 421.81 258.46 418.89
  Q 253.32 416.96 251.21 417.09
  Q 246.74 417.37 244.77 422.51
  Q 242.91 427.34 245.52 430.47
  Q 246.94 432.17 251.67 433.97
  Q 261.99 437.90 272.35 441.76
  A 0.97 0.89 6.0 0 1 272.94 442.43
  Q 273.44 444.86 271.44 446.02
  A 1.17 1.01 36.6 0 1 270.53 446.09
  Q 262.29 443.30 247.94 437.81
  Q 243.78 436.22 240.67 438.21
  Q 238.05 439.88 236.96 443.58
  Q 234.85 450.68 243.03 453.68
  Q 251.70 456.86 260.60 460.30
  A 1.19 1.18 14.6 0 1 261.35 461.57
  Q 260.73 465.88 257.43 464.36
  Q 255.46 463.46 255.37 463.42
  Z"
/>
<path fill="#7bb540" d="
  M 49.25 404.96
  Q 33.99 420.86 40.17 441.60
  Q 42.40 449.07 42.41 449.11
  Q 49.36 476.15 51.50 482.25
  Q 53.81 488.82 60.15 495.78
  Q 54.30 497.48 49.50 496.75
  Q 31.91 494.06 26.97 476.64
  Q 21.56 457.52 16.44 438.31
  Q 14.24 430.06 16.15 422.90
  Q 18.11 415.56 23.94 410.43
  Q 29.96 405.15 38.75 404.00
  Q 44.39 403.26 49.25 404.96
  Z"
/>
<path fill="#7bb540" d="
  M 418.00 404.96
  Q 410.75 412.30 408.04 422.26
  Q 403.63 438.47 399.25 454.68
  Q 396.13 466.20 396.25 471.56
  Q 396.54 485.10 406.74 495.70
  Q 399.96 497.83 393.48 496.34
  Q 380.97 493.46 375.31 482.19
  Q 370.85 473.29 373.53 463.39
  Q 377.53 448.60 381.63 433.84
  Q 385.34 420.51 386.18 418.76
  Q 389.78 411.27 397.50 407.00
  Q 407.08 401.71 418.00 404.96
  Z"
/>
<path fill="#89c947" d="
  M 49.25 404.96
  Q 59.92 408.45 64.81 417.19
  Q 66.40 420.06 70.50 435.05
  Q 73.29 445.28 78.25 463.75
  Q 80.30 471.38 77.92 478.47
  Q 73.46 491.80 60.15 495.78
  Q 53.81 488.82 51.50 482.25
  Q 49.36 476.15 42.41 449.11
  Q 42.40 449.07 40.17 441.60
  Q 33.99 420.86 49.25 404.96
  Z"
/>
<path fill="#89c947" d="
  M 418.00 404.96
  Q 435.56 411.27 436.56 428.66
  Q 436.80 432.85 435.16 439.17
  Q 427.71 467.86 424.50 478.25
  Q 420.35 491.67 406.74 495.70
  Q 396.54 485.10 396.25 471.56
  Q 396.13 466.20 399.25 454.68
  Q 403.63 438.47 408.04 422.26
  Q 410.75 412.30 418.00 404.96
  Z"
/>
</svg>
