<?xml version="1.0" encoding="UTF-8" standalone="no"?>
<!DOCTYPE svg PUBLIC "-//W3C//DTD SVG 1.1//EN" "http://www.w3.org/Graphics/SVG/1.1/DTD/svg11.dtd">
<svg xmlns="http://www.w3.org/2000/svg" version="1.1" viewBox="0 0 512 512">
<g stroke-width="2.00" fill="none" stroke-linecap="butt">
<path stroke="#749d9e" vector-effect="non-scaling-stroke" d="
  M 436.00 496.79
  Q 438.89 489.09 446.44 491.06
  Q 456.32 493.64 466.24 496.05
  Q 481.05 499.65 485.75 485.75
  Q 486.76 482.76 487.96 473.00"
/>
<path stroke="#83a69e" vector-effect="non-scaling-stroke" d="
  M 487.96 473.00
  Q 493.20 443.99 491.39 413.73
  Q 491.22 410.96 488.45 411.14
  Q 474.66 412.06 463.90 421.39
  Q 458.36 426.20 456.98 426.83
  Q 450.49 429.83 443.31 424.94
  Q 425.21 412.60 404.46 404.64
  A 0.48 0.48 11.3 0 0 403.81 405.07
  Q 402.87 432.64 395.11 459.70"
/>
<path stroke="#749d9e" vector-effect="non-scaling-stroke" d="
  M 395.11 459.70
  L 388.50 479.01
  A 0.38 0.37 -74.8 0 0 388.78 479.51
  Q 396.87 480.83 404.93 482.38
  Q 412.14 483.76 413.12 484.24
  Q 417.60 486.42 417.29 492.75"
/>
<path stroke="#749d9e" vector-effect="non-scaling-stroke" d="
  M 127.17 323.91
  Q 134.03 327.17 132.00 334.25
  Q 116.57 387.95 127.71 441.19
  A 0.30 0.29 64.1 0 0 128.19 441.36
  Q 135.79 434.92 144.18 430.98"
/>
<path stroke="#83a69e" vector-effect="non-scaling-stroke" d="
  M 144.18 430.98
  Q 157.61 425.66 171.73 426.46
  A 0.42 0.41 87.2 0 0 172.16 425.98
  Q 166.42 392.57 173.52 360.00
  Q 175.41 351.31 183.15 353.25
  Q 185.15 353.75 186.37 355.01
  Q 187.76 356.44 188.24 358.34
  Q 188.68 360.03 187.93 363.62
  Q 184.97 377.90 184.71 392.50"
/>
<path stroke="#749d9e" vector-effect="non-scaling-stroke" d="
  M 184.71 392.50
  Q 183.76 425.02 196.36 454.72
  Q 198.43 459.60 199.04 462.06
  Q 199.93 465.71 200.33 469.82
  A 0.74 0.74 85.2 0 0 201.12 470.49
  Q 256.00 466.90 311.17 470.51
  A 0.52 0.51 3.3 0 0 311.72 470.03
  Q 312.16 462.76 314.88 456.59
  Q 328.68 425.30 327.19 390.96"
/>
<path stroke="#83a69e" vector-effect="non-scaling-stroke" d="
  M 327.19 390.96
  Q 326.95 377.73 324.26 364.72
  Q 323.29 360.02 323.98 357.75
  Q 325.26 353.48 330.03 352.85
  Q 332.65 352.50 334.79 353.68
  Q 337.39 355.12 338.00 357.75
  Q 345.82 391.78 339.92 425.60
  A 0.80 0.79 -86.2 0 0 340.74 426.54
  Q 355.02 425.83 367.90 430.99"
/>
<path stroke="#749d9e" vector-effect="non-scaling-stroke" d="
  M 367.90 430.99
  Q 376.28 434.77 383.71 441.55
  Q 384.16 441.96 384.28 441.36
  Q 397.75 376.57 373.19 315.31
  Q 366.96 299.79 356.77 284.41
  A 0.46 0.43 -36.2 0 0 356.12 284.33
  L 345.25 292.96"
/>
<path stroke="#83a69e" vector-effect="non-scaling-stroke" d="
  M 345.25 292.96
  Q 343.89 293.43 344.19 295.31
  Q 346.00 306.83 341.23 316.99
  Q 337.05 325.90 328.60 332.21
  Q 314.27 342.90 294.81 339.65
  A 0.76 0.74 20.1 0 0 294.05 339.99
  Q 284.61 355.30 268.35 359.81
  Q 258.67 362.49 248.53 360.87
  Q 229.21 357.79 217.95 340.00
  A 0.78 0.77 68.7 0 0 217.16 339.65
  Q 200.05 342.37 186.77 334.45
  Q 177.89 329.16 172.75 320.52
  Q 165.65 308.57 167.85 293.47"
/>
<path stroke="#749d9e" vector-effect="non-scaling-stroke" d="
  M 167.85 293.47
  Q 161.24 289.23 155.93 284.40
  A 0.44 0.44 38.9 0 0 155.27 284.47
  Q 147.70 295.25 146.06 299.56
  Q 142.91 307.86 134.43 305.87"
/>
<path stroke="#846b72" vector-effect="non-scaling-stroke" d="
  M 225.20 57.56
  Q 210.04 55.44 203.03 66.65
  Q 201.27 69.45 199.81 70.29
  Q 196.60 72.13 193.37 70.63
  Q 190.34 69.23 189.35 66.25
  Q 188.33 63.19 190.00 59.75
  Q 192.70 54.18 197.08 50.62
  Q 208.78 41.12 224.89 42.32
  A 1.10 0.98 -84.7 0 0 225.94 41.34
  L 226.71 34.93
  A 1.62 1.34 -71.6 0 0 226.16 33.51
  Q 221.41 30.16 216.64 27.07
  Q 200.27 16.48 180.76 15.10
  Q 171.04 14.41 162.81 18.06
  Q 156.78 20.74 155.26 26.44
  Q 154.11 30.70 156.08 35.91
  Q 157.86 40.61 161.19 44.31
  Q 172.66 57.08 161.77 70.05
  Q 158.03 74.50 155.99 79.96
  Q 153.16 87.51 157.01 92.63
  Q 159.82 96.38 166.68 98.55
  Q 176.43 101.64 186.93 99.64
  Q 208.91 95.47 226.35 81.57
  A 0.92 0.90 -23.1 0 0 226.69 80.75
  Q 226.53 79.41 226.30 78.07
  Q 226.00 76.37 226.00 74.90
  Q 225.99 66.88 225.72 58.15
  A 0.61 0.60 -86.7 0 0 225.20 57.56"
/>
<path stroke="#846b72" vector-effect="non-scaling-stroke" d="
  M 356.96 31.30
  Q 357.93 25.72 354.56 22.19
  Q 348.02 15.33 337.51 15.05
  Q 319.46 14.56 303.42 22.64
  Q 294.04 27.36 285.71 33.76
  A 0.92 0.85 -23.3 0 0 285.35 34.57
  L 286.34 41.82
  A 0.57 0.53 -6.1 0 0 286.94 42.27
  Q 297.08 41.44 306.19 45.06
  Q 315.94 48.94 321.04 57.87
  Q 322.95 61.22 322.98 63.95
  Q 323.02 68.01 319.65 70.04
  Q 316.68 71.83 313.63 70.91
  Q 310.43 69.93 308.69 66.31
  Q 306.01 60.76 299.47 58.59
  Q 293.25 56.52 286.73 57.50
  A 0.80 0.79 84.0 0 0 286.06 58.33
  Q 286.70 69.18 285.39 80.95
  A 0.92 0.91 21.4 0 0 285.75 81.77
  Q 295.75 89.19 306.44 94.05
  Q 317.92 99.26 330.50 100.27
  Q 340.28 101.06 349.18 97.16
  Q 354.93 94.64 356.59 89.44
  Q 357.93 85.21 355.88 79.70
  Q 354.24 75.29 351.33 71.56
  Q 347.35 66.44 346.84 65.43
  Q 342.18 56.20 348.39 47.38
  Q 348.43 47.33 351.10 44.10
  Q 355.71 38.54 356.96 31.30"
/>
<path stroke="#87787b" vector-effect="non-scaling-stroke" d="
  M 270.90 41.12
  A 14.21 14.21 0.0 0 0 256.69 26.91
  L 255.31 26.91
  A 14.21 14.21 0.0 0 0 241.10 41.12
  L 241.10 74.34
  A 14.21 14.21 0.0 0 0 255.31 88.55
  L 256.69 88.55
  A 14.21 14.21 0.0 0 0 270.90 74.34
  L 270.90 41.12"
/>
<path stroke="#949148" vector-effect="non-scaling-stroke" d="
  M 247.26 102.33
  Q 240.74 100.24 234.99 95.22
  A 1.18 1.17 48.1 0 0 233.55 95.14
  Q 222.56 102.84 211.13 108.23
  A 0.87 0.87 64.9 0 0 210.71 109.39
  Q 221.22 131.85 243.35 141.50
  Q 251.39 145.01 260.22 146.79
  A 0.53 0.53 87.0 0 0 260.83 146.11
  Q 258.10 137.58 258.56 128.56
  Q 258.88 122.36 261.14 119.00
  Q 264.75 113.64 271.78 115.46
  Q 273.93 116.02 277.65 118.52
  Q 280.44 120.41 283.43 121.87
  Q 284.75 122.52 284.41 121.08
  Q 281.75 109.97 282.94 99.00
  A 0.94 0.73 -72.5 0 0 282.63 98.17
  L 278.02 94.98
  A 0.75 0.69 -48.3 0 0 277.13 95.07
  Q 269.77 101.65 261.00 103.22
  Q 253.99 104.48 247.26 102.33"
/>
<path stroke="#94977f" vector-effect="non-scaling-stroke" d="
  M 113.25 223.06
  Q 121.83 227.37 131.74 223.16
  Q 134.80 221.86 136.62 222.01
  Q 142.53 222.52 143.66 229.32
  Q 148.68 259.65 171.62 277.72
  Q 178.91 283.47 188.69 288.04
  Q 201.50 294.04 215.06 296.69
  Q 249.93 303.50 286.03 298.72
  Q 310.25 295.52 329.19 285.19
  Q 360.97 267.85 367.91 231.62
  Q 368.84 226.78 369.91 225.14
  Q 372.22 221.57 376.63 222.01
  Q 377.03 222.06 383.07 224.14
  Q 388.00 225.84 392.75 225.00
  Q 403.29 223.13 408.04 214.97
  Q 412.49 207.31 410.47 198.50
  Q 408.70 190.85 402.05 186.24
  Q 397.26 182.92 391.76 182.38
  Q 385.96 181.81 380.53 184.30
  Q 376.13 186.33 375.10 186.48
  Q 371.57 186.97 369.15 184.61
  Q 367.54 183.04 366.52 178.84
  Q 358.23 144.85 333.69 117.56
  Q 331.61 115.25 329.32 115.22
  Q 328.28 115.21 328.19 115.20
  Q 312.48 113.78 298.23 106.99
  A 0.46 0.45 -78.5 0 0 297.58 107.43
  Q 297.85 114.54 300.23 121.38
  Q 302.33 127.44 302.38 129.37
  Q 302.55 135.67 296.81 138.36
  Q 293.97 139.70 290.02 139.13
  Q 281.81 137.96 274.27 133.97
  Q 273.60 133.62 273.67 134.37
  Q 274.22 140.26 276.58 145.46
  Q 278.70 150.14 278.75 151.25
  Q 279.14 159.37 273.18 162.09
  Q 270.15 163.48 264.66 162.79
  Q 240.53 159.75 221.81 146.19
  Q 205.17 134.13 196.52 114.13
  A 1.24 1.23 -19.0 0 0 195.07 113.43
  Q 189.23 114.96 181.84 115.28
  A 3.48 3.47 -69.5 0 0 179.46 116.37
  Q 153.88 143.70 145.40 179.18
  Q 144.52 182.85 143.08 184.36
  Q 140.73 186.84 137.30 186.52
  Q 136.14 186.41 131.10 184.12
  Q 122.87 180.39 114.81 183.56
  Q 105.74 187.13 102.44 195.69
  Q 99.01 204.59 102.54 212.19
  Q 105.87 219.34 113.25 223.06"
/>
<path stroke="#64949e" vector-effect="non-scaling-stroke" d="
  M 300.00 325.23
  Q 314.77 326.87 324.20 315.84
  Q 326.78 312.82 328.00 309.63
  Q 329.34 306.15 329.49 302.40
  A 0.33 0.33 80.4 0 0 329.04 302.08
  Q 307.10 311.25 284.27 313.95
  Q 275.71 314.96 264.32 315.38
  Q 244.77 316.10 226.00 313.75
  Q 204.11 311.01 183.02 302.25
  A 0.33 0.33 -79.4 0 0 182.57 302.56
  Q 182.75 309.70 187.00 315.00
  Q 196.48 326.83 211.75 325.23
  Q 211.81 325.22 215.22 324.64
  Q 225.31 322.94 230.44 331.56
  Q 234.87 339.03 241.62 342.87
  Q 248.07 346.54 256.42 346.52
  Q 270.18 346.48 279.13 335.28
  Q 279.16 335.23 281.94 330.90
  Q 285.46 325.39 291.81 324.60
  Q 293.01 324.46 300.00 325.23"
/>
<path stroke="#749d9e" vector-effect="non-scaling-stroke" d="
  M 24.04 473.15
  Q 25.29 483.31 26.56 486.69
  Q 29.82 495.32 37.50 496.58
  Q 41.14 497.18 50.70 494.78
  Q 86.24 485.86 123.02 479.62
  A 0.60 0.58 75.2 0 0 123.46 478.84
  L 116.87 459.74"
/>
<path stroke="#83a69e" vector-effect="non-scaling-stroke" d="
  M 116.87 459.74
  Q 109.28 432.60 107.96 405.06
  A 0.36 0.36 -11.7 0 0 107.47 404.74
  Q 86.88 412.69 68.51 424.86
  Q 64.54 427.49 61.87 427.84
  Q 55.50 428.68 50.25 423.50
  Q 38.91 412.33 22.92 411.06
  A 1.80 1.78 8.3 0 0 21.03 412.46
  Q 20.74 413.77 20.65 415.26
  Q 18.89 444.54 24.04 473.15"
/>
<path stroke="#cee2fd" vector-effect="non-scaling-stroke" d="
  M 116.87 459.74
  Q 84.03 465.91 43.44 475.94
  Q 33.57 478.37 24.04 473.15"
/>
<path stroke="#8a876e" vector-effect="non-scaling-stroke" d="
  M 146.96 446.50
  Q 138.64 450.97 132.90 459.10
  A 1.05 1.04 -35.9 0 0 132.75 460.01
  Q 135.15 467.90 138.38 475.47
  Q 142.65 485.45 146.95 489.33
  Q 154.59 496.20 166.57 494.51"
/>
<path stroke="#94977f" vector-effect="non-scaling-stroke" d="
  M 166.57 494.51
  Q 177.50 492.18 182.50 482.75
  Q 187.90 472.57 183.02 461.49
  Q 178.93 452.21 176.01 442.54
  A 0.96 0.96 85.2 0 0 175.22 441.87
  Q 159.80 439.95 146.96 446.50"
/>
<path stroke="#f5beae" vector-effect="non-scaling-stroke" d="
  M 166.57 494.51
  Q 161.66 488.31 159.56 483.69
  Q 152.14 467.33 146.96 446.50"
/>
<path stroke="#8a876e" vector-effect="non-scaling-stroke" d="
  M 345.46 494.55
  Q 363.01 496.78 371.00 481.50
  Q 374.47 474.87 379.34 459.97
  A 0.99 0.99 -53.1 0 0 379.22 459.09
  Q 373.81 451.36 365.17 446.60"
/>
<path stroke="#94977f" vector-effect="non-scaling-stroke" d="
  M 365.17 446.60
  Q 352.67 439.98 336.82 441.89
  A 0.88 0.85 5.2 0 0 336.10 442.47
  Q 332.76 452.24 329.16 461.58
  Q 326.78 467.76 326.72 471.35
  Q 326.59 478.96 331.31 485.44
  Q 336.61 492.71 345.46 494.55"
/>
<path stroke="#f5beae" vector-effect="non-scaling-stroke" d="
  M 365.17 446.60
  Q 360.15 466.62 351.64 485.12
  Q 350.58 487.43 348.71 489.92
  Q 347.05 492.14 345.46 494.55"
/>
<path stroke="#cee2fd" vector-effect="non-scaling-stroke" d="
  M 167.85 293.47
  Q 166.26 294.11 165.78 295.05
  Q 133.21 359.25 144.18 430.98"
/>
<path stroke="#cee2fd" vector-effect="non-scaling-stroke" d="
  M 367.90 430.99
  Q 378.72 358.01 345.25 292.96"
/>
<path stroke="#cee2fd" vector-effect="non-scaling-stroke" d="
  M 327.19 390.96
  Q 319.11 422.10 299.84 448.41
  A 1.83 1.81 -70.0 0 1 298.26 449.16
  Q 256.13 447.00 214.05 449.16
  A 2.30 2.30 70.1 0 1 212.07 448.23
  Q 194.13 424.34 186.42 395.69
  Q 186.20 394.88 185.65 394.07
  Q 185.14 393.31 184.71 392.50"
/>
<path stroke="#cee2fd" vector-effect="non-scaling-stroke" d="
  M 487.96 473.00
  Q 478.28 478.52 466.75 475.50
  Q 435.37 467.27 395.11 459.70"
/>
</g>
<path fill="#29603f" d="
  M 175.81 0.00
  L 181.56 0.00
  Q 201.48 1.47 218.88 11.17
  Q 226.24 15.28 233.85 20.52
  A 0.82 0.82 40.9 0 0 234.87 20.45
  Q 246.78 9.60 262.19 12.31
  Q 270.29 13.74 277.34 20.59
  A 0.57 0.56 -41.7 0 0 278.08 20.63
  Q 301.39 2.67 330.79 -0.05
  L 336.31 0.00
  Q 343.41 0.54 350.23 2.55
  Q 358.35 4.95 364.05 10.52
  Q 369.88 16.22 371.58 23.86
  Q 373.57 32.78 369.59 41.89
  Q 365.93 50.26 359.81 57.06
  A 0.84 0.84 45.6 0 0 359.80 58.17
  Q 363.98 62.99 367.10 68.46
  Q 370.49 74.41 371.59 80.12
  Q 375.15 98.56 358.06 109.23
  Q 354.69 111.34 350.38 112.89
  A 0.44 0.44 60.3 0 0 350.19 113.59
  Q 369.95 137.23 378.96 167.69
  A 1.04 1.04 75.7 0 0 380.18 168.42
  Q 393.99 165.47 405.19 170.77
  Q 414.40 175.13 420.15 183.68
  Q 424.93 190.79 425.90 199.50
  Q 426.85 207.94 424.15 215.79
  Q 421.23 224.25 414.56 230.31
  Q 400.94 242.70 382.23 239.45
  A 0.69 0.69 -78.1 0 0 381.45 239.96
  Q 376.92 257.58 367.04 271.84
  A 0.72 0.71 -44.7 0 0 367.03 272.66
  Q 390.93 307.76 399.37 349.48
  Q 402.95 367.19 403.85 387.45
  A 1.62 1.61 8.3 0 0 404.94 388.90
  Q 429.10 397.24 451.16 412.18
  A 0.69 0.69 40.2 0 0 452.02 412.11
  Q 466.63 398.28 486.41 396.30
  Q 491.66 395.77 495.39 397.31
  Q 501.26 399.72 504.09 405.11
  Q 506.26 409.24 506.60 418.75
  Q 507.78 450.71 501.00 485.50
  Q 496.33 509.47 472.69 512.00
  L 470.69 512.00
  Q 458.94 510.00 447.46 506.80
  Q 447.40 506.79 443.48 505.97
  Q 436.54 504.52 436.00 496.79
  Q 438.89 489.09 446.44 491.06
  Q 456.32 493.64 466.24 496.05
  Q 481.05 499.65 485.75 485.75
  Q 486.76 482.76 487.96 473.00
  Q 493.20 443.99 491.39 413.73
  Q 491.22 410.96 488.45 411.14
  Q 474.66 412.06 463.90 421.39
  Q 458.36 426.20 456.98 426.83
  Q 450.49 429.83 443.31 424.94
  Q 425.21 412.60 404.46 404.64
  A 0.48 0.48 11.3 0 0 403.81 405.07
  Q 402.87 432.64 395.11 459.70
  L 388.50 479.01
  A 0.38 0.37 -74.8 0 0 388.78 479.51
  Q 396.87 480.83 404.93 482.38
  Q 412.14 483.76 413.12 484.24
  Q 417.60 486.42 417.29 492.75
  Q 415.52 497.18 411.57 498.09
  Q 409.60 498.54 404.46 497.55
  Q 393.24 495.39 381.94 493.76
  A 0.87 0.87 -67.1 0 0 381.13 494.09
  Q 374.23 503.01 364.36 507.06
  Q 355.14 510.85 344.76 509.46
  Q 324.83 506.78 314.68 486.68
  A 1.82 1.81 -11.1 0 0 313.20 485.69
  Q 256.00 481.62 198.33 485.73
  A 1.01 1.00 10.5 0 0 197.49 486.30
  Q 190.33 501.47 176.37 507.12
  Q 167.01 510.90 156.78 509.54
  Q 141.15 507.47 131.06 493.98
  A 0.89 0.89 68.3 0 0 130.21 493.63
  Q 92.60 499.80 56.31 508.81
  Q 45.93 511.39 41.19 512.00
  L 38.94 512.00
  Q 22.87 510.38 15.44 498.09
  Q 12.41 493.09 10.37 482.71
  Q 3.45 447.48 5.75 411.50
  Q 5.96 408.25 8.99 403.68
  Q 14.89 394.78 25.77 396.10
  Q 45.62 398.50 59.91 412.04
  A 0.85 0.85 -39.9 0 0 60.97 412.13
  Q 82.81 397.26 107.41 388.78
  A 1.15 1.13 81.9 0 0 108.18 387.74
  Q 109.19 358.76 117.36 331.19
  Q 118.58 327.07 120.41 325.58
  Q 123.07 323.39 127.17 323.91
  Q 134.03 327.17 132.00 334.25
  Q 116.57 387.95 127.71 441.19
  A 0.30 0.29 64.1 0 0 128.19 441.36
  Q 135.79 434.92 144.18 430.98
  Q 157.61 425.66 171.73 426.46
  A 0.42 0.41 87.2 0 0 172.16 425.98
  Q 166.42 392.57 173.52 360.00
  Q 175.41 351.31 183.15 353.25
  Q 185.15 353.75 186.37 355.01
  Q 187.76 356.44 188.24 358.34
  Q 188.68 360.03 187.93 363.62
  Q 184.97 377.90 184.71 392.50
  Q 183.76 425.02 196.36 454.72
  Q 198.43 459.60 199.04 462.06
  Q 199.93 465.71 200.33 469.82
  A 0.74 0.74 85.2 0 0 201.12 470.49
  Q 256.00 466.90 311.17 470.51
  A 0.52 0.51 3.3 0 0 311.72 470.03
  Q 312.16 462.76 314.88 456.59
  Q 328.68 425.30 327.19 390.96
  Q 326.95 377.73 324.26 364.72
  Q 323.29 360.02 323.98 357.75
  Q 325.26 353.48 330.03 352.85
  Q 332.65 352.50 334.79 353.68
  Q 337.39 355.12 338.00 357.75
  Q 345.82 391.78 339.92 425.60
  A 0.80 0.79 -86.2 0 0 340.74 426.54
  Q 355.02 425.83 367.90 430.99
  Q 376.28 434.77 383.71 441.55
  Q 384.16 441.96 384.28 441.36
  Q 397.75 376.57 373.19 315.31
  Q 366.96 299.79 356.77 284.41
  A 0.46 0.43 -36.2 0 0 356.12 284.33
  L 345.25 292.96
  Q 343.89 293.43 344.19 295.31
  Q 346.00 306.83 341.23 316.99
  Q 337.05 325.90 328.60 332.21
  Q 314.27 342.90 294.81 339.65
  A 0.76 0.74 20.1 0 0 294.05 339.99
  Q 284.61 355.30 268.35 359.81
  Q 258.67 362.49 248.53 360.87
  Q 229.21 357.79 217.95 340.00
  A 0.78 0.77 68.7 0 0 217.16 339.65
  Q 200.05 342.37 186.77 334.45
  Q 177.89 329.16 172.75 320.52
  Q 165.65 308.57 167.85 293.47
  Q 161.24 289.23 155.93 284.40
  A 0.44 0.44 38.9 0 0 155.27 284.47
  Q 147.70 295.25 146.06 299.56
  Q 142.91 307.86 134.43 305.87
  Q 128.72 301.61 131.31 295.56
  Q 134.86 287.30 144.97 272.66
  A 0.73 0.73 0.0 0 0 144.97 271.84
  Q 134.80 257.15 130.60 240.13
  A 0.84 0.83 78.5 0 0 129.67 239.51
  Q 110.78 242.24 97.79 230.45
  Q 87.38 221.00 86.00 207.25
  Q 85.18 199.04 87.92 191.52
  Q 90.50 184.44 96.14 178.50
  Q 109.92 163.97 132.28 168.61
  A 0.55 0.55 13.9 0 0 132.93 168.22
  Q 141.62 137.71 161.56 113.88
  A 0.78 0.77 -61.4 0 0 161.20 112.64
  Q 150.43 109.34 144.06 100.44
  Q 139.81 94.49 139.64 86.89
  Q 139.50 80.59 142.43 73.43
  Q 145.74 65.35 151.71 58.93
  A 1.91 1.91 -45.2 0 0 151.70 56.32
  Q 145.15 49.46 142.00 40.91
  Q 138.63 31.76 140.54 23.35
  Q 143.37 10.91 156.06 4.81
  Q 164.92 0.56 175.81 0.00
  Z
  M 225.20 57.56
  Q 210.04 55.44 203.03 66.65
  Q 201.27 69.45 199.81 70.29
  Q 196.60 72.13 193.37 70.63
  Q 190.34 69.23 189.35 66.25
  Q 188.33 63.19 190.00 59.75
  Q 192.70 54.18 197.08 50.62
  Q 208.78 41.12 224.89 42.32
  A 1.10 0.98 -84.7 0 0 225.94 41.34
  L 226.71 34.93
  A 1.62 1.34 -71.6 0 0 226.16 33.51
  Q 221.41 30.16 216.64 27.07
  Q 200.27 16.48 180.76 15.10
  Q 171.04 14.41 162.81 18.06
  Q 156.78 20.74 155.26 26.44
  Q 154.11 30.70 156.08 35.91
  Q 157.86 40.61 161.19 44.31
  Q 172.66 57.08 161.77 70.05
  Q 158.03 74.50 155.99 79.96
  Q 153.16 87.51 157.01 92.63
  Q 159.82 96.38 166.68 98.55
  Q 176.43 101.64 186.93 99.64
  Q 208.91 95.47 226.35 81.57
  A 0.92 0.90 -23.1 0 0 226.69 80.75
  Q 226.53 79.41 226.30 78.07
  Q 226.00 76.37 226.00 74.90
  Q 225.99 66.88 225.72 58.15
  A 0.61 0.60 -86.7 0 0 225.20 57.56
  Z
  M 356.96 31.30
  Q 357.93 25.72 354.56 22.19
  Q 348.02 15.33 337.51 15.05
  Q 319.46 14.56 303.42 22.64
  Q 294.04 27.36 285.71 33.76
  A 0.92 0.85 -23.3 0 0 285.35 34.57
  L 286.34 41.82
  A 0.57 0.53 -6.1 0 0 286.94 42.27
  Q 297.08 41.44 306.19 45.06
  Q 315.94 48.94 321.04 57.87
  Q 322.95 61.22 322.98 63.95
  Q 323.02 68.01 319.65 70.04
  Q 316.68 71.83 313.63 70.91
  Q 310.43 69.93 308.69 66.31
  Q 306.01 60.76 299.47 58.59
  Q 293.25 56.52 286.73 57.50
  A 0.80 0.79 84.0 0 0 286.06 58.33
  Q 286.70 69.18 285.39 80.95
  A 0.92 0.91 21.4 0 0 285.75 81.77
  Q 295.75 89.19 306.44 94.05
  Q 317.92 99.26 330.50 100.27
  Q 340.28 101.06 349.18 97.16
  Q 354.93 94.64 356.59 89.44
  Q 357.93 85.21 355.88 79.70
  Q 354.24 75.29 351.33 71.56
  Q 347.35 66.44 346.84 65.43
  Q 342.18 56.20 348.39 47.38
  Q 348.43 47.33 351.10 44.10
  Q 355.71 38.54 356.96 31.30
  Z
  M 270.90 41.12
  A 14.21 14.21 0.0 0 0 256.69 26.91
  L 255.31 26.91
  A 14.21 14.21 0.0 0 0 241.10 41.12
  L 241.10 74.34
  A 14.21 14.21 0.0 0 0 255.31 88.55
  L 256.69 88.55
  A 14.21 14.21 0.0 0 0 270.90 74.34
  L 270.90 41.12
  Z
  M 247.26 102.33
  Q 240.74 100.24 234.99 95.22
  A 1.18 1.17 48.1 0 0 233.55 95.14
  Q 222.56 102.84 211.13 108.23
  A 0.87 0.87 64.9 0 0 210.71 109.39
  Q 221.22 131.85 243.35 141.50
  Q 251.39 145.01 260.22 146.79
  A 0.53 0.53 87.0 0 0 260.83 146.11
  Q 258.10 137.58 258.56 128.56
  Q 258.88 122.36 261.14 119.00
  Q 264.75 113.64 271.78 115.46
  Q 273.93 116.02 277.65 118.52
  Q 280.44 120.41 283.43 121.87
  Q 284.75 122.52 284.41 121.08
  Q 281.75 109.97 282.94 99.00
  A 0.94 0.73 -72.5 0 0 282.63 98.17
  L 278.02 94.98
  A 0.75 0.69 -48.3 0 0 277.13 95.07
  Q 269.77 101.65 261.00 103.22
  Q 253.99 104.48 247.26 102.33
  Z
  M 113.25 223.06
  Q 121.83 227.37 131.74 223.16
  Q 134.80 221.86 136.62 222.01
  Q 142.53 222.52 143.66 229.32
  Q 148.68 259.65 171.62 277.72
  Q 178.91 283.47 188.69 288.04
  Q 201.50 294.04 215.06 296.69
  Q 249.93 303.50 286.03 298.72
  Q 310.25 295.52 329.19 285.19
  Q 360.97 267.85 367.91 231.62
  Q 368.84 226.78 369.91 225.14
  Q 372.22 221.57 376.63 222.01
  Q 377.03 222.06 383.07 224.14
  Q 388.00 225.84 392.75 225.00
  Q 403.29 223.13 408.04 214.97
  Q 412.49 207.31 410.47 198.50
  Q 408.70 190.85 402.05 186.24
  Q 397.26 182.92 391.76 182.38
  Q 385.96 181.81 380.53 184.30
  Q 376.13 186.33 375.10 186.48
  Q 371.57 186.97 369.15 184.61
  Q 367.54 183.04 366.52 178.84
  Q 358.23 144.85 333.69 117.56
  Q 331.61 115.25 329.32 115.22
  Q 328.28 115.21 328.19 115.20
  Q 312.48 113.78 298.23 106.99
  A 0.46 0.45 -78.5 0 0 297.58 107.43
  Q 297.85 114.54 300.23 121.38
  Q 302.33 127.44 302.38 129.37
  Q 302.55 135.67 296.81 138.36
  Q 293.97 139.70 290.02 139.13
  Q 281.81 137.96 274.27 133.97
  Q 273.60 133.62 273.67 134.37
  Q 274.22 140.26 276.58 145.46
  Q 278.70 150.14 278.75 151.25
  Q 279.14 159.37 273.18 162.09
  Q 270.15 163.48 264.66 162.79
  Q 240.53 159.75 221.81 146.19
  Q 205.17 134.13 196.52 114.13
  A 1.24 1.23 -19.0 0 0 195.07 113.43
  Q 189.23 114.96 181.84 115.28
  A 3.48 3.47 -69.5 0 0 179.46 116.37
  Q 153.88 143.70 145.40 179.18
  Q 144.52 182.85 143.08 184.36
  Q 140.73 186.84 137.30 186.52
  Q 136.14 186.41 131.10 184.12
  Q 122.87 180.39 114.81 183.56
  Q 105.74 187.13 102.44 195.69
  Q 99.01 204.59 102.54 212.19
  Q 105.87 219.34 113.25 223.06
  Z
  M 300.00 325.23
  Q 314.77 326.87 324.20 315.84
  Q 326.78 312.82 328.00 309.63
  Q 329.34 306.15 329.49 302.40
  A 0.33 0.33 80.4 0 0 329.04 302.08
  Q 307.10 311.25 284.27 313.95
  Q 275.71 314.96 264.32 315.38
  Q 244.77 316.10 226.00 313.75
  Q 204.11 311.01 183.02 302.25
  A 0.33 0.33 -79.4 0 0 182.57 302.56
  Q 182.75 309.70 187.00 315.00
  Q 196.48 326.83 211.75 325.23
  Q 211.81 325.22 215.22 324.64
  Q 225.31 322.94 230.44 331.56
  Q 234.87 339.03 241.62 342.87
  Q 248.07 346.54 256.42 346.52
  Q 270.18 346.48 279.13 335.28
  Q 279.16 335.23 281.94 330.90
  Q 285.46 325.39 291.81 324.60
  Q 293.01 324.46 300.00 325.23
  Z
  M 24.04 473.15
  Q 25.29 483.31 26.56 486.69
  Q 29.82 495.32 37.50 496.58
  Q 41.14 497.18 50.70 494.78
  Q 86.24 485.86 123.02 479.62
  A 0.60 0.58 75.2 0 0 123.46 478.84
  L 116.87 459.74
  Q 109.28 432.60 107.96 405.06
  A 0.36 0.36 -11.7 0 0 107.47 404.74
  Q 86.88 412.69 68.51 424.86
  Q 64.54 427.49 61.87 427.84
  Q 55.50 428.68 50.25 423.50
  Q 38.91 412.33 22.92 411.06
  A 1.80 1.78 8.3 0 0 21.03 412.46
  Q 20.74 413.77 20.65 415.26
  Q 18.89 444.54 24.04 473.15
  Z
  M 146.96 446.50
  Q 138.64 450.97 132.90 459.10
  A 1.05 1.04 -35.9 0 0 132.75 460.01
  Q 135.15 467.90 138.38 475.47
  Q 142.65 485.45 146.95 489.33
  Q 154.59 496.20 166.57 494.51
  Q 177.50 492.18 182.50 482.75
  Q 187.90 472.57 183.02 461.49
  Q 178.93 452.21 176.01 442.54
  A 0.96 0.96 85.2 0 0 175.22 441.87
  Q 159.80 439.95 146.96 446.50
  Z
  M 345.46 494.55
  Q 363.01 496.78 371.00 481.50
  Q 374.47 474.87 379.34 459.97
  A 0.99 0.99 -53.1 0 0 379.22 459.09
  Q 373.81 451.36 365.17 446.60
  Q 352.67 439.98 336.82 441.89
  A 0.88 0.85 5.2 0 0 336.10 442.47
  Q 332.76 452.24 329.16 461.58
  Q 326.78 467.76 326.72 471.35
  Q 326.59 478.96 331.31 485.44
  Q 336.61 492.71 345.46 494.55
  Z"
/>
<path fill="#df75a5" d="
  M 225.20 57.56
  A 0.61 0.60 -86.7 0 1 225.72 58.15
  Q 225.99 66.88 226.00 74.90
  Q 226.00 76.37 226.30 78.07
  Q 226.53 79.41 226.69 80.75
  A 0.92 0.90 -23.1 0 1 226.35 81.57
  Q 208.91 95.47 186.93 99.64
  Q 176.43 101.64 166.68 98.55
  Q 159.82 96.38 157.01 92.63
  Q 153.16 87.51 155.99 79.96
  Q 158.03 74.50 161.77 70.05
  Q 172.66 57.08 161.19 44.31
  Q 157.86 40.61 156.08 35.91
  Q 154.11 30.70 155.26 26.44
  Q 156.78 20.74 162.81 18.06
  Q 171.04 14.41 180.76 15.10
  Q 200.27 16.48 216.64 27.07
  Q 221.41 30.16 226.16 33.51
  A 1.62 1.34 -71.6 0 1 226.71 34.93
  L 225.94 41.34
  A 1.10 0.98 -84.7 0 1 224.89 42.32
  Q 208.78 41.12 197.08 50.62
  Q 192.70 54.18 190.00 59.75
  Q 188.33 63.19 189.35 66.25
  Q 190.34 69.23 193.37 70.63
  Q 196.60 72.13 199.81 70.29
  Q 201.27 69.45 203.03 66.65
  Q 210.04 55.44 225.20 57.56
  Z"
/>
<path fill="#df75a5" d="
  M 356.96 31.30
  Q 355.71 38.54 351.10 44.10
  Q 348.43 47.33 348.39 47.38
  Q 342.18 56.20 346.84 65.43
  Q 347.35 66.44 351.33 71.56
  Q 354.24 75.29 355.88 79.70
  Q 357.93 85.21 356.59 89.44
  Q 354.93 94.64 349.18 97.16
  Q 340.28 101.06 330.50 100.27
  Q 317.92 99.26 306.44 94.05
  Q 295.75 89.19 285.75 81.77
  A 0.92 0.91 21.4 0 1 285.39 80.95
  Q 286.70 69.18 286.06 58.33
  A 0.80 0.79 84.0 0 1 286.73 57.50
  Q 293.25 56.52 299.47 58.59
  Q 306.01 60.76 308.69 66.31
  Q 310.43 69.93 313.63 70.91
  Q 316.68 71.83 319.65 70.04
  Q 323.02 68.01 322.98 63.95
  Q 322.95 61.22 321.04 57.87
  Q 315.94 48.94 306.19 45.06
  Q 297.08 41.44 286.94 42.27
  A 0.57 0.53 -6.1 0 1 286.34 41.82
  L 285.35 34.57
  A 0.92 0.85 -23.3 0 1 285.71 33.76
  Q 294.04 27.36 303.42 22.64
  Q 319.46 14.56 337.51 15.05
  Q 348.02 15.33 354.56 22.19
  Q 357.93 25.72 356.96 31.30
  Z"
/>
<rect fill="#e490b7" x="241.10" y="26.91" width="29.80" height="61.64" rx="14.21"/>
<path fill="#ffc250" d="
  M 261.00 103.22
  Q 269.77 101.65 277.13 95.07
  A 0.75 0.69 -48.3 0 1 278.02 94.98
  L 282.63 98.17
  A 0.94 0.73 -72.5 0 1 282.94 99.00
  Q 281.75 109.97 284.41 121.08
  Q 284.75 122.52 283.43 121.87
  Q 280.44 120.41 277.65 118.52
  Q 273.93 116.02 271.78 115.46
  Q 264.75 113.64 261.14 119.00
  Q 258.88 122.36 258.56 128.56
  Q 258.10 137.58 260.83 146.11
  A 0.53 0.53 87.0 0 1 260.22 146.79
  Q 251.39 145.01 243.35 141.50
  Q 221.22 131.85 210.71 109.39
  A 0.87 0.87 64.7 0 1 211.13 108.23
  Q 222.56 102.84 233.55 95.14
  A 1.18 1.17 48.1 0 1 234.99 95.22
  Q 240.74 100.24 247.26 102.33
  Q 253.99 104.48 261.00 103.22
  Z"
/>
<path fill="#ffcdbe" d="
  M 102.54 212.19
  Q 99.01 204.59 102.44 195.69
  Q 105.74 187.13 114.81 183.56
  Q 122.87 180.39 131.10 184.12
  Q 136.14 186.41 137.30 186.52
  Q 140.73 186.84 143.08 184.36
  Q 144.52 182.85 145.40 179.18
  Q 153.88 143.70 179.46 116.37
  A 3.48 3.47 -69.5 0 1 181.84 115.28
  Q 189.23 114.96 195.07 113.43
  A 1.24 1.23 -19.0 0 1 196.52 114.13
  Q 205.17 134.13 221.81 146.19
  Q 240.53 159.75 264.66 162.79
  Q 270.15 163.48 273.18 162.09
  Q 279.14 159.37 278.75 151.25
  Q 278.70 150.14 276.58 145.46
  Q 274.22 140.26 273.67 134.37
  Q 273.60 133.62 274.27 133.97
  Q 281.81 137.96 290.02 139.13
  Q 293.97 139.70 296.81 138.36
  Q 302.55 135.67 302.38 129.37
  Q 302.33 127.44 300.23 121.38
  Q 297.85 114.54 297.58 107.43
  A 0.46 0.45 -78.5 0 1 298.23 106.99
  Q 312.48 113.78 328.19 115.20
  Q 328.28 115.21 329.32 115.22
  Q 331.61 115.25 333.69 117.56
  Q 358.23 144.85 366.52 178.84
  Q 367.54 183.04 369.15 184.61
  Q 371.57 186.97 375.10 186.48
  Q 376.13 186.33 380.53 184.30
  Q 385.96 181.81 391.76 182.38
  Q 397.26 182.92 402.05 186.24
  Q 408.70 190.85 410.47 198.50
  Q 412.49 207.31 408.04 214.97
  Q 403.29 223.13 392.75 225.00
  Q 388.00 225.84 383.07 224.14
  Q 377.03 222.06 376.63 222.01
  Q 372.22 221.57 369.91 225.14
  Q 368.84 226.78 367.91 231.62
  Q 360.97 267.85 329.19 285.19
  Q 310.25 295.52 286.03 298.72
  Q 249.93 303.50 215.06 296.69
  Q 201.50 294.04 188.69 288.04
  Q 178.91 283.47 171.62 277.72
  Q 148.68 259.65 143.66 229.32
  Q 142.53 222.52 136.62 222.01
  Q 134.80 221.86 131.74 223.16
  Q 121.83 227.37 113.25 223.06
  Q 105.87 219.34 102.54 212.19
  Z"
/>
<path fill="#bed9fd" d="
  M 167.85 293.47
  Q 166.26 294.11 165.78 295.05
  Q 133.21 359.25 144.18 430.98
  Q 135.79 434.92 128.19 441.36
  A 0.30 0.29 64.1 0 1 127.71 441.19
  Q 116.57 387.95 132.00 334.25
  Q 134.03 327.17 127.17 323.91
  L 134.43 305.87
  Q 142.91 307.86 146.06 299.56
  Q 147.70 295.25 155.27 284.47
  A 0.44 0.44 38.9 0 1 155.93 284.40
  Q 161.24 289.23 167.85 293.47
  Z"
/>
<path fill="#bed9fd" d="
  M 367.90 430.99
  Q 378.72 358.01 345.25 292.96
  L 356.12 284.33
  A 0.46 0.43 -36.2 0 1 356.77 284.41
  Q 366.96 299.79 373.19 315.31
  Q 397.75 376.57 384.28 441.36
  Q 384.16 441.96 383.71 441.55
  Q 376.28 434.77 367.90 430.99
  Z"
/>
<path fill="#ddebfd" d="
  M 345.25 292.96
  Q 378.72 358.01 367.90 430.99
  Q 355.02 425.83 340.74 426.54
  A 0.80 0.79 -86.2 0 1 339.92 425.60
  Q 345.82 391.78 338.00 357.75
  Q 337.39 355.12 334.79 353.68
  Q 332.65 352.50 330.03 352.85
  Q 325.26 353.48 323.98 357.75
  Q 323.29 360.02 324.26 364.72
  Q 326.95 377.73 327.19 390.96
  Q 319.11 422.10 299.84 448.41
  A 1.83 1.81 -70.0 0 1 298.26 449.16
  Q 256.13 447.00 214.05 449.16
  A 2.30 2.30 70.1 0 1 212.07 448.23
  Q 194.13 424.34 186.42 395.69
  Q 186.20 394.88 185.65 394.07
  Q 185.14 393.31 184.71 392.50
  Q 184.97 377.90 187.93 363.62
  Q 188.68 360.03 188.24 358.34
  Q 187.76 356.44 186.37 355.01
  Q 185.15 353.75 183.15 353.25
  Q 175.41 351.31 173.52 360.00
  Q 166.42 392.57 172.16 425.98
  A 0.42 0.41 87.2 0 1 171.73 426.46
  Q 157.61 425.66 144.18 430.98
  Q 133.21 359.25 165.78 295.05
  Q 166.26 294.11 167.85 293.47
  Q 165.65 308.57 172.75 320.52
  Q 177.89 329.16 186.77 334.45
  Q 200.05 342.37 217.16 339.65
  A 0.78 0.77 68.7 0 1 217.95 340.00
  Q 229.21 357.79 248.53 360.87
  Q 258.67 362.49 268.35 359.81
  Q 284.61 355.30 294.05 339.99
  A 0.76 0.74 20.1 0 1 294.81 339.65
  Q 314.27 342.90 328.60 332.21
  Q 337.05 325.90 341.23 316.99
  Q 346.00 306.83 344.19 295.31
  Q 343.89 293.43 345.25 292.96
  Z"
/>
<path fill="#9ec8fc" d="
  M 291.81 324.60
  Q 285.46 325.39 281.94 330.90
  Q 279.16 335.23 279.13 335.28
  Q 270.18 346.48 256.42 346.52
  Q 248.07 346.54 241.62 342.87
  Q 234.87 339.03 230.44 331.56
  Q 225.31 322.94 215.22 324.64
  Q 211.81 325.22 211.75 325.23
  Q 196.48 326.83 187.00 315.00
  Q 182.75 309.70 182.57 302.56
  A 0.33 0.33 -79.4 0 1 183.02 302.25
  Q 204.11 311.01 226.00 313.75
  Q 244.77 316.10 264.32 315.38
  Q 275.71 314.96 284.27 313.95
  Q 307.10 311.25 329.04 302.08
  A 0.33 0.33 80.4 0 1 329.49 302.40
  Q 329.34 306.15 328.00 309.63
  Q 326.78 312.82 324.20 315.84
  Q 314.77 326.87 300.00 325.23
  Q 293.01 324.46 291.81 324.60
  Z"
/>
<path fill="#bed9fd" d="
  M 327.19 390.96
  Q 328.68 425.30 314.88 456.59
  Q 312.16 462.76 311.72 470.03
  A 0.52 0.51 3.3 0 1 311.17 470.51
  Q 256.00 466.90 201.12 470.49
  A 0.74 0.74 85.2 0 1 200.33 469.82
  Q 199.93 465.71 199.04 462.06
  Q 198.43 459.60 196.36 454.72
  Q 183.76 425.02 184.71 392.50
  Q 185.14 393.31 185.65 394.07
  Q 186.20 394.88 186.42 395.69
  Q 194.13 424.34 212.07 448.23
  A 2.30 2.30 70.1 0 0 214.05 449.16
  Q 256.13 447.00 298.26 449.16
  A 1.83 1.81 -70.0 0 0 299.84 448.41
  Q 319.11 422.10 327.19 390.96
  Z"
/>
<path fill="#ddebfd" d="
  M 116.87 459.74
  Q 84.03 465.91 43.44 475.94
  Q 33.57 478.37 24.04 473.15
  Q 18.89 444.54 20.65 415.26
  Q 20.74 413.77 21.03 412.46
  A 1.80 1.78 8.3 0 1 22.92 411.06
  Q 38.91 412.33 50.25 423.50
  Q 55.50 428.68 61.87 427.84
  Q 64.54 427.49 68.51 424.86
  Q 86.88 412.69 107.47 404.74
  A 0.36 0.36 -11.7 0 1 107.96 405.06
  Q 109.28 432.60 116.87 459.74
  Z"
/>
<path fill="#ddebfd" d="
  M 487.96 473.00
  Q 478.28 478.52 466.75 475.50
  Q 435.37 467.27 395.11 459.70
  Q 402.87 432.64 403.81 405.07
  A 0.48 0.48 11.3 0 1 404.46 404.64
  Q 425.21 412.60 443.31 424.94
  Q 450.49 429.83 456.98 426.83
  Q 458.36 426.20 463.90 421.39
  Q 474.66 412.06 488.45 411.14
  Q 491.22 410.96 491.39 413.73
  Q 493.20 443.99 487.96 473.00
  Z"
/>
<path fill="#ffcdbe" d="
  M 166.57 494.51
  Q 161.66 488.31 159.56 483.69
  Q 152.14 467.33 146.96 446.50
  Q 159.80 439.95 175.22 441.87
  A 0.96 0.96 85.2 0 1 176.01 442.54
  Q 178.93 452.21 183.02 461.49
  Q 187.90 472.57 182.50 482.75
  Q 177.50 492.18 166.57 494.51
  Z"
/>
<path fill="#ffcdbe" d="
  M 365.17 446.60
  Q 360.15 466.62 351.64 485.12
  Q 350.58 487.43 348.71 489.92
  Q 347.05 492.14 345.46 494.55
  Q 336.61 492.71 331.31 485.44
  Q 326.59 478.96 326.72 471.35
  Q 326.78 467.76 329.16 461.58
  Q 332.76 452.24 336.10 442.47
  A 0.88 0.85 5.2 0 1 336.82 441.89
  Q 352.67 439.98 365.17 446.60
  Z"
/>
<path fill="#ebae9d" d="
  M 146.96 446.50
  Q 152.14 467.33 159.56 483.69
  Q 161.66 488.31 166.57 494.51
  Q 154.59 496.20 146.95 489.33
  Q 142.65 485.45 138.38 475.47
  Q 135.15 467.90 132.75 460.01
  A 1.05 1.04 -35.9 0 1 132.90 459.10
  Q 138.64 450.97 146.96 446.50
  Z"
/>
<path fill="#ebae9d" d="
  M 365.17 446.60
  Q 373.81 451.36 379.22 459.09
  A 0.99 0.99 -53.1 0 1 379.34 459.97
  Q 374.47 474.87 371.00 481.50
  Q 363.01 496.78 345.46 494.55
  Q 347.05 492.14 348.71 489.92
  Q 350.58 487.43 351.64 485.12
  Q 360.15 466.62 365.17 446.60
  Z"
/>
<path fill="#bed9fd" d="
  M 116.87 459.74
  L 123.46 478.84
  A 0.60 0.58 75.2 0 1 123.02 479.62
  Q 86.24 485.86 50.70 494.78
  Q 41.14 497.18 37.50 496.58
  Q 29.82 495.32 26.56 486.69
  Q 25.29 483.31 24.04 473.15
  Q 33.57 478.37 43.44 475.94
  Q 84.03 465.91 116.87 459.74
  Z"
/>
<path fill="#bed9fd" d="
  M 395.11 459.70
  Q 435.37 467.27 466.75 475.50
  Q 478.28 478.52 487.96 473.00
  Q 486.76 482.76 485.75 485.75
  Q 481.05 499.65 466.24 496.05
  Q 456.32 493.64 446.44 491.06
  Q 438.89 489.09 436.00 496.79
  Q 426.77 494.20 417.29 492.75
  Q 417.60 486.42 413.12 484.24
  Q 412.14 483.76 404.93 482.38
  Q 396.87 480.83 388.78 479.51
  A 0.38 0.37 -74.8 0 1 388.50 479.01
  L 395.11 459.70
  Z"
/>
</svg>
